  0
SECTION
  2
HEADER
  9
$ACADVER
  1
AC1006
  9
$DWGCODEPAGE
  3
ansi_1252
  9
$INSBASE
 10
0.0
 20
0.0
 30
0.0
  9
$EXTMIN
 10
1.000000000000000E+20
 20
1.000000000000000E+20
  9
$EXTMAX
 10
-1.000000000000000E+20
 20
-1.000000000000000E+20
  9
$LIMMIN
 10
0.0
 20
0.0
  9
$LIMMAX
 10
210.0
 20
297.0
  9
$ORTHOMODE
 70
     0
  9
$REGENMODE
 70
     1
  9
$FILLMODE
 70
     1
  9
$QTEXTMODE
 70
     0
  9
$MIRRTEXT
 70
     1
  9
$DRAGMODE
 70
     2
  9
$LTSCALE
 40
1.0
  9
$OSMODE
 70
    37
  9
$ATTMODE
 70
     1
  9
$TEXTSIZE
 40
0.2
  9
$TRACEWID
 40
0.05
  9
$TEXTSTYLE
  7
STANDARD
  9
$CLAYER
  8
F2_02STRUCTURE
  9
$CELTYPE
  6
BYLAYER
  9
$CECOLOR
 62
   256
  9
$DIMSCALE
 40
1.0
  9
$DIMASZ
 40
0.18
  9
$DIMEXO
 40
0.0625
  9
$DIMDLI
 40
0.38
  9
$DIMRND
 40
0.0
  9
$DIMDLE
 40
0.0
  9
$DIMEXE
 40
0.18
  9
$DIMTP
 40
0.0
  9
$DIMTM
 40
0.0
  9
$DIMTXT
 40
0.18
  9
$DIMCEN
 40
0.09
  9
$DIMTSZ
 40
0.0
  9
$DIMTOL
 70
     0
  9
$DIMLIM
 70
     0
  9
$DIMTIH
 70
     1
  9
$DIMTOH
 70
     1
  9
$DIMSE1
 70
     0
  9
$DIMSE2
 70
     0
  9
$DIMTAD
 70
     0
  9
$DIMZIN
 70
     0
  9
$DIMBLK
  1

  9
$DIMASO
 70
     1
  9
$DIMSHO
 70
     1
  9
$DIMPOST
  1

  9
$DIMAPOST
  1

  9
$DIMALT
 70
     0
  9
$DIMALTD
 70
     2
  9
$DIMALTF
 40
25.4
  9
$DIMLFAC
 40
1.0
  9
$DIMTOFL
 70
     0
  9
$DIMTVP
 40
0.0
  9
$DIMTIX
 70
     0
  9
$DIMSOXD
 70
     0
  9
$DIMSAH
 70
     0
  9
$DIMBLK1
  1

  9
$DIMBLK2
  1

  9
$LUNITS
 70
     2
  9
$LUPREC
 70
     4
  9
$SKETCHINC
 40
0.1
  9
$FILLETRAD
 40
0.5
  9
$AUNITS
 70
     0
  9
$AUPREC
 70
     0
  9
$MENU
  1
.
  9
$ELEVATION
 40
0.0
  9
$THICKNESS
 40
0.0
  9
$LIMCHECK
 70
     0
  9
$CHAMFERA
 40
0.0
  9
$CHAMFERB
 40
0.0
  9
$SKPOLY
 70
     0
  9
$TDCREATE
 40
2460313.685024178
  9
$TDUPDATE
 40
2460313.685025266
  9
$TDINDWG
 40
0.0000000116
  9
$TDUSRTIMER
 40
0.0000000116
  9
$USRTIMER
 70
     1
  9
$ANGBASE
 50
0.0
  9
$ANGDIR
 70
     0
  9
$PDMODE
 70
     0
  9
$PDSIZE
 40
0.0
  9
$PLINEWID
 40
0.0
  9
$COORDS
 70
     1
  9
$SPLFRAME
 70
     0
  9
$SPLINETYPE
 70
     6
  9
$SPLINESEGS
 70
     8
  9
$ATTDIA
 70
     0
  9
$ATTREQ
 70
     1
  9
$HANDLING
 70
     1
  9
$HANDSEED
  5
35B
  9
$SURFTAB1
 70
     6
  9
$SURFTAB2
 70
     6
  9
$SURFTYPE
 70
     6
  9
$SURFU
 70
     6
  9
$SURFV
 70
     6
  9
$UCSNAME
  2

  9
$UCSORG
 10
0.0
 20
0.0
 30
0.0
  9
$UCSXDIR
 10
1.0
 20
0.0
 30
0.0
  9
$UCSYDIR
 10
0.0
 20
1.0
 30
0.0
  9
$USERI1
 70
     0
  9
$USERI2
 70
     0
  9
$USERI3
 70
     0
  9
$USERI4
 70
     0
  9
$USERI5
 70
     0
  9
$USERR1
 40
0.0
  9
$USERR2
 40
0.0
  9
$USERR3
 40
0.0
  9
$USERR4
 40
0.0
  9
$USERR5
 40
0.0
  9
$WORLDVIEW
 70
     1
  0
ENDSEC
  0
SECTION
  2
TABLES
  0
TABLE
  2
VPORT
 70
     1
  0
VPORT
  2
*ACTIVE
 70
     0
 10
0.0
 20
0.0
 11
1.0
 21
1.0
 12
290826.1551909588
 22
40511.33533866402
 13
0.0
 23
0.0
 14
0.5
 24
0.5
 15
0.5
 25
0.5
 16
0.0
 26
0.0
 36
1.0
 17
0.0
 27
0.0
 37
0.0
 40
152921.5605553729
 41
2.787732947451527
 42
50.0
 43
0.0
 44
0.0
 50
0.0
 51
0.0
 71
     0
 72
   100
 73
     1
 74
     3
 75
     0
 76
     0
 77
     0
 78
     0
  0
ENDTAB
  0
TABLE
  2
LTYPE
 70
     1
  0
LTYPE
  2
CONTINUOUS
 70
     0
  3
Solid line
 72
    65
 73
     0
 40
0.0
  0
ENDTAB
  0
TABLE
  2
LAYER
 70
     3
  0
LAYER
  2
0
 70
     0
 62
     7
  6
CONTINUOUS
  0
LAYER
  2
F2_02STRUCTURE
 70
     0
 62
     7
  6
CONTINUOUS
  0
LAYER
  2
F2_05MULTIPURPOSE
 70
     0
 62
     7
  6
CONTINUOUS
  0
ENDTAB
  0
TABLE
  2
STYLE
 70
     1
  0
STYLE
  2
STANDARD
 70
     0
 40
0.0
 41
1.0
 50
0.0
 71
     0
 42
0.2
  3
txt
  4

  0
ENDTAB
  0
TABLE
  2
VIEW
 70
     0
  0
ENDTAB
  0
TABLE
  2
UCS
 70
     0
  0
ENDTAB
  0
ENDSEC
  0
SECTION
  2
BLOCKS
  0
BLOCK
  8
0
  2
VIEWPORT1
 70
     0
 10
0.0
 20
0.0
 30
0.0
  0
POLYLINE
  5
75
  8
F2_02STRUCTURE
  6
CONTINUOUS
 62
    40
 66
     1
 10
0.0
 20
0.0
 30
0.0
  0
VERTEX
  5
1B5
  8
F2_02STRUCTURE
  6
CONTINUOUS
 62
    40
 10
264702.2171017018
 20
28484.05232739548
 30
0.0
  0
VERTEX
  5
1B6
  8
F2_02STRUCTURE
  6
CONTINUOUS
 62
    40
 10
266202.8088457322
 20
28484.05232739548
 30
0.0
  0
VERTEX
  5
1B7
  8
F2_02STRUCTURE
  6
CONTINUOUS
 62
    40
 10
266202.8088457322
 20
29893.6771793778
 30
0.0
  0
VERTEX
  5
1B8
  8
F2_02STRUCTURE
  6
CONTINUOUS
 62
    40
 10
264702.2171017018
 20
29893.6771793778
 30
0.0
  0
VERTEX
  5
1B9
  8
F2_02STRUCTURE
  6
CONTINUOUS
 62
    40
 10
264702.2171017018
 20
28484.05232739548
 30
0.0
  0
SEQEND
  5
313
  8
F2_02STRUCTURE
  6
CONTINUOUS
 62
    40
  0
POLYLINE
  5
76
  8
F2_02STRUCTURE
  6
CONTINUOUS
 62
    40
 66
     1
 10
0.0
 20
0.0
 30
0.0
  0
VERTEX
  5
1BA
  8
F2_02STRUCTURE
  6
CONTINUOUS
 62
    40
 10
273432.9327033334
 20
28484.05232739548
 30
0.0
  0
VERTEX
  5
1BB
  8
F2_02STRUCTURE
  6
CONTINUOUS
 62
    40
 10
274933.5244473639
 20
28484.05232739548
 30
0.0
  0
VERTEX
  5
1BC
  8
F2_02STRUCTURE
  6
CONTINUOUS
 62
    40
 10
274933.5244473639
 20
29893.6771793778
 30
0.0
  0
VERTEX
  5
1BD
  8
F2_02STRUCTURE
  6
CONTINUOUS
 62
    40
 10
273432.9327033334
 20
29893.6771793778
 30
0.0
  0
VERTEX
  5
1BE
  8
F2_02STRUCTURE
  6
CONTINUOUS
 62
    40
 10
273432.9327033334
 20
28484.05232739548
 30
0.0
  0
SEQEND
  5
314
  8
F2_02STRUCTURE
  6
CONTINUOUS
 62
    40
  0
POLYLINE
  5
77
  8
F2_02STRUCTURE
  6
CONTINUOUS
 62
    40
 66
     1
 10
0.0
 20
0.0
 30
0.0
  0
VERTEX
  5
1BF
  8
F2_02STRUCTURE
  6
CONTINUOUS
 62
    40
 10
273432.9327033334
 20
33440.475194043
 30
0.0
  0
VERTEX
  5
1C0
  8
F2_02STRUCTURE
  6
CONTINUOUS
 62
    40
 10
274933.5244473639
 20
33440.475194043
 30
0.0
  0
VERTEX
  5
1C1
  8
F2_02STRUCTURE
  6
CONTINUOUS
 62
    40
 10
274933.5244473639
 20
34804.62827660654
 30
0.0
  0
VERTEX
  5
1C2
  8
F2_02STRUCTURE
  6
CONTINUOUS
 62
    40
 10
273432.9327033334
 20
34804.62827660654
 30
0.0
  0
VERTEX
  5
1C3
  8
F2_02STRUCTURE
  6
CONTINUOUS
 62
    40
 10
273432.9327033334
 20
33440.475194043
 30
0.0
  0
SEQEND
  5
315
  8
F2_02STRUCTURE
  6
CONTINUOUS
 62
    40
  0
POLYLINE
  5
78
  8
F2_02STRUCTURE
  6
CONTINUOUS
 62
    40
 66
     1
 10
0.0
 20
0.0
 30
0.0
  0
VERTEX
  5
1C4
  8
F2_02STRUCTURE
  6
CONTINUOUS
 62
    40
 10
264702.2171017018
 20
33440.475194043
 30
0.0
  0
VERTEX
  5
1C5
  8
F2_02STRUCTURE
  6
CONTINUOUS
 62
    40
 10
266202.8088457322
 20
33440.475194043
 30
0.0
  0
VERTEX
  5
1C6
  8
F2_02STRUCTURE
  6
CONTINUOUS
 62
    40
 10
266202.8088457322
 20
34804.62827660654
 30
0.0
  0
VERTEX
  5
1C7
  8
F2_02STRUCTURE
  6
CONTINUOUS
 62
    40
 10
264702.2171017018
 20
34804.62827660654
 30
0.0
  0
VERTEX
  5
1C8
  8
F2_02STRUCTURE
  6
CONTINUOUS
 62
    40
 10
264702.2171017018
 20
33440.475194043
 30
0.0
  0
SEQEND
  5
316
  8
F2_02STRUCTURE
  6
CONTINUOUS
 62
    40
  0
POLYLINE
  5
79
  8
F2_02STRUCTURE
  6
CONTINUOUS
 62
    40
 66
     1
 10
0.0
 20
0.0
 30
0.0
  0
VERTEX
  5
1C9
  8
F2_02STRUCTURE
  6
CONTINUOUS
 62
    40
 10
290803.4189524129
 20
33440.475194043
 30
0.0
  0
VERTEX
  5
1CA
  8
F2_02STRUCTURE
  6
CONTINUOUS
 62
    40
 10
292304.0106964433
 20
33440.475194043
 30
0.0
  0
VERTEX
  5
1CB
  8
F2_02STRUCTURE
  6
CONTINUOUS
 62
    40
 10
292304.0106964433
 20
34804.62827660654
 30
0.0
  0
VERTEX
  5
1CC
  8
F2_02STRUCTURE
  6
CONTINUOUS
 62
    40
 10
290803.4189524129
 20
34804.62827660654
 30
0.0
  0
VERTEX
  5
1CD
  8
F2_02STRUCTURE
  6
CONTINUOUS
 62
    40
 10
290803.4189524129
 20
33440.475194043
 30
0.0
  0
SEQEND
  5
317
  8
F2_02STRUCTURE
  6
CONTINUOUS
 62
    40
  0
POLYLINE
  5
7A
  8
F2_02STRUCTURE
  6
CONTINUOUS
 62
    40
 66
     1
 10
0.0
 20
0.0
 30
0.0
  0
VERTEX
  5
1CE
  8
F2_02STRUCTURE
  6
CONTINUOUS
 62
    40
 10
290348.6941814946
 20
18480.26305526285
 30
0.0
  0
VERTEX
  5
1CF
  8
F2_02STRUCTURE
  6
CONTINUOUS
 62
    40
 10
292758.7354673616
 20
18480.26305526285
 30
0.0
  0
VERTEX
  5
1D0
  8
F2_02STRUCTURE
  6
CONTINUOUS
 62
    40
 10
292758.7354673616
 20
16070.25927606726
 30
0.0
  0
VERTEX
  5
1D1
  8
F2_02STRUCTURE
  6
CONTINUOUS
 62
    40
 10
290348.6941814946
 20
16070.25927606726
 30
0.0
  0
VERTEX
  5
1D2
  8
F2_02STRUCTURE
  6
CONTINUOUS
 62
    40
 10
290348.6941814946
 20
18480.26305526285
 30
0.0
  0
SEQEND
  5
318
  8
F2_02STRUCTURE
  6
CONTINUOUS
 62
    40
  0
POLYLINE
  5
7B
  8
F2_02STRUCTURE
  6
CONTINUOUS
 62
    40
 66
     1
 10
0.0
 20
0.0
 30
0.0
  0
VERTEX
  5
1D3
  8
F2_02STRUCTURE
  6
CONTINUOUS
 62
    40
 10
282345.5382133323
 20
17798.18651398108
 30
0.0
  0
VERTEX
  5
1D4
  8
F2_02STRUCTURE
  6
CONTINUOUS
 62
    40
 10
283345.9327093526
 20
17798.18651398108
 30
0.0
  0
VERTEX
  5
1D5
  8
F2_02STRUCTURE
  6
CONTINUOUS
 62
    40
 10
283345.9327093526
 20
16797.80758676781
 30
0.0
  0
VERTEX
  5
1D6
  8
F2_02STRUCTURE
  6
CONTINUOUS
 62
    40
 10
282345.5382133323
 20
16797.80758676781
 30
0.0
  0
VERTEX
  5
1D7
  8
F2_02STRUCTURE
  6
CONTINUOUS
 62
    40
 10
282345.5382133323
 20
17798.18651398108
 30
0.0
  0
SEQEND
  5
319
  8
F2_02STRUCTURE
  6
CONTINUOUS
 62
    40
  0
POLYLINE
  5
7C
  8
F2_02STRUCTURE
  6
CONTINUOUS
 62
    40
 66
     1
 10
0.0
 20
0.0
 30
0.0
  0
VERTEX
  5
1D8
  8
F2_02STRUCTURE
  6
CONTINUOUS
 62
    40
 10
273660.2950887926
 20
17798.18651398108
 30
0.0
  0
VERTEX
  5
1D9
  8
F2_02STRUCTURE
  6
CONTINUOUS
 62
    40
 10
274660.6895848128
 20
17798.18651398108
 30
0.0
  0
VERTEX
  5
1DA
  8
F2_02STRUCTURE
  6
CONTINUOUS
 62
    40
 10
274660.6895848128
 20
16797.80758676781
 30
0.0
  0
VERTEX
  5
1DB
  8
F2_02STRUCTURE
  6
CONTINUOUS
 62
    40
 10
273660.2950887926
 20
16797.80758676781
 30
0.0
  0
VERTEX
  5
1DC
  8
F2_02STRUCTURE
  6
CONTINUOUS
 62
    40
 10
273660.2950887926
 20
17798.18651398108
 30
0.0
  0
SEQEND
  5
31A
  8
F2_02STRUCTURE
  6
CONTINUOUS
 62
    40
  0
POLYLINE
  5
7D
  8
F2_02STRUCTURE
  6
CONTINUOUS
 62
    40
 66
     1
 10
0.0
 20
0.0
 30
0.0
  0
VERTEX
  5
1DD
  8
F2_02STRUCTURE
  6
CONTINUOUS
 62
    40
 10
264975.0519642528
 20
43080.49031082536
 30
0.0
  0
VERTEX
  5
1DE
  8
F2_02STRUCTURE
  6
CONTINUOUS
 62
    40
 10
265975.4464602731
 20
43080.49031082536
 30
0.0
  0
VERTEX
  5
1DF
  8
F2_02STRUCTURE
  6
CONTINUOUS
 62
    40
 10
265975.4464602731
 20
42080.11138361209
 30
0.0
  0
VERTEX
  5
1E0
  8
F2_02STRUCTURE
  6
CONTINUOUS
 62
    40
 10
264975.0519642528
 20
42080.11138361209
 30
0.0
  0
VERTEX
  5
1E1
  8
F2_02STRUCTURE
  6
CONTINUOUS
 62
    40
 10
264975.0519642528
 20
43080.49031082536
 30
0.0
  0
SEQEND
  5
31B
  8
F2_02STRUCTURE
  6
CONTINUOUS
 62
    40
  0
POLYLINE
  5
7E
  8
F2_02STRUCTURE
  6
CONTINUOUS
 62
    40
 66
     1
 10
0.0
 20
0.0
 30
0.0
  0
VERTEX
  5
1E2
  8
F2_02STRUCTURE
  6
CONTINUOUS
 62
    40
 10
299761.4969395036
 20
52356.73127225743
 30
0.0
  0
VERTEX
  5
1E3
  8
F2_02STRUCTURE
  6
CONTINUOUS
 62
    40
 10
300761.8914355239
 20
52356.73127225743
 30
0.0
  0
VERTEX
  5
1E4
  8
F2_02STRUCTURE
  6
CONTINUOUS
 62
    40
 10
300761.8914355239
 20
51356.35234504417
 30
0.0
  0
VERTEX
  5
1E5
  8
F2_02STRUCTURE
  6
CONTINUOUS
 62
    40
 10
299761.4969395036
 20
51356.35234504417
 30
0.0
  0
VERTEX
  5
1E6
  8
F2_02STRUCTURE
  6
CONTINUOUS
 62
    40
 10
299761.4969395036
 20
52356.73127225743
 30
0.0
  0
SEQEND
  5
31C
  8
F2_02STRUCTURE
  6
CONTINUOUS
 62
    40
  0
POLYLINE
  5
7F
  8
F2_02STRUCTURE
  6
CONTINUOUS
 62
    40
 66
     1
 10
0.0
 20
0.0
 30
0.0
  0
VERTEX
  5
1E7
  8
F2_02STRUCTURE
  6
CONTINUOUS
 62
    40
 10
299761.4969395036
 20
68635.62472418234
 30
0.0
  0
VERTEX
  5
1E8
  8
F2_02STRUCTURE
  6
CONTINUOUS
 62
    40
 10
300761.8914355239
 20
68635.62472418234
 30
0.0
  0
VERTEX
  5
1E9
  8
F2_02STRUCTURE
  6
CONTINUOUS
 62
    40
 10
300761.8914355239
 20
67635.24579696909
 30
0.0
  0
VERTEX
  5
1EA
  8
F2_02STRUCTURE
  6
CONTINUOUS
 62
    40
 10
299761.4969395036
 20
67635.24579696909
 30
0.0
  0
VERTEX
  5
1EB
  8
F2_02STRUCTURE
  6
CONTINUOUS
 62
    40
 10
299761.4969395036
 20
68635.62472418234
 30
0.0
  0
SEQEND
  5
31D
  8
F2_02STRUCTURE
  6
CONTINUOUS
 62
    40
  0
POLYLINE
  5
80
  8
F2_02STRUCTURE
  6
CONTINUOUS
 62
    40
 66
     1
 10
0.0
 20
0.0
 30
0.0
  0
VERTEX
  5
1EC
  8
F2_02STRUCTURE
  6
CONTINUOUS
 62
    40
 10
264975.0519642528
 20
52356.73127225743
 30
0.0
  0
VERTEX
  5
1ED
  8
F2_02STRUCTURE
  6
CONTINUOUS
 62
    40
 10
265975.4464602731
 20
52356.73127225743
 30
0.0
  0
VERTEX
  5
1EE
  8
F2_02STRUCTURE
  6
CONTINUOUS
 62
    40
 10
265975.4464602731
 20
51356.35234504417
 30
0.0
  0
VERTEX
  5
1EF
  8
F2_02STRUCTURE
  6
CONTINUOUS
 62
    40
 10
264975.0519642528
 20
51356.35234504417
 30
0.0
  0
VERTEX
  5
1F0
  8
F2_02STRUCTURE
  6
CONTINUOUS
 62
    40
 10
264975.0519642528
 20
52356.73127225743
 30
0.0
  0
SEQEND
  5
31E
  8
F2_02STRUCTURE
  6
CONTINUOUS
 62
    40
  0
POLYLINE
  5
81
  8
F2_02STRUCTURE
  6
CONTINUOUS
 62
    40
 66
     1
 10
0.0
 20
0.0
 30
0.0
  0
VERTEX
  5
1F1
  8
F2_02STRUCTURE
  6
CONTINUOUS
 62
    40
 10
264975.0519642528
 20
68635.62472418234
 30
0.0
  0
VERTEX
  5
1F2
  8
F2_02STRUCTURE
  6
CONTINUOUS
 62
    40
 10
265975.4464602731
 20
68635.62472418234
 30
0.0
  0
VERTEX
  5
1F3
  8
F2_02STRUCTURE
  6
CONTINUOUS
 62
    40
 10
265975.4464602731
 20
67635.24579696909
 30
0.0
  0
VERTEX
  5
1F4
  8
F2_02STRUCTURE
  6
CONTINUOUS
 62
    40
 10
264975.0519642528
 20
67635.24579696909
 30
0.0
  0
VERTEX
  5
1F5
  8
F2_02STRUCTURE
  6
CONTINUOUS
 62
    40
 10
264975.0519642528
 20
68635.62472418234
 30
0.0
  0
SEQEND
  5
31F
  8
F2_02STRUCTURE
  6
CONTINUOUS
 62
    40
  0
POLYLINE
  5
82
  8
F2_02STRUCTURE
  6
CONTINUOUS
 62
    40
 66
     1
 10
0.0
 20
0.0
 30
0.0
  0
VERTEX
  5
1F6
  8
F2_02STRUCTURE
  6
CONTINUOUS
 62
    40
 10
291076.2538149639
 20
77911.86568561442
 30
0.0
  0
VERTEX
  5
1F7
  8
F2_02STRUCTURE
  6
CONTINUOUS
 62
    40
 10
292076.6483109842
 20
77911.86568561442
 30
0.0
  0
VERTEX
  5
1F8
  8
F2_02STRUCTURE
  6
CONTINUOUS
 62
    40
 10
292076.6483109842
 20
76911.48675840117
 30
0.0
  0
VERTEX
  5
1F9
  8
F2_02STRUCTURE
  6
CONTINUOUS
 62
    40
 10
291076.2538149639
 20
76911.48675840117
 30
0.0
  0
VERTEX
  5
1FA
  8
F2_02STRUCTURE
  6
CONTINUOUS
 62
    40
 10
291076.2538149639
 20
77911.86568561442
 30
0.0
  0
SEQEND
  5
320
  8
F2_02STRUCTURE
  6
CONTINUOUS
 62
    40
  0
LINE
  5
83
  8
F2_02STRUCTURE
  6
CONTINUOUS
 62
    40
 10
215500.9968883406
 20
4656.845151952301
 30
0.0
 11
215500.9968883406
 21
9204.022093830768
 31
0.0
  0
LINE
  5
84
  8
F2_02STRUCTURE
  6
CONTINUOUS
 62
    40
 10
209680.5198205861
 20
-32539.06223261357
 30
0.0
 11
209680.5198205861
 21
4656.845151952301
 31
0.0
  0
LINE
  5
85
  8
F2_02STRUCTURE
  6
CONTINUOUS
 62
    40
 10
209998.827160229
 20
-32220.75984668207
 30
0.0
 11
209998.827160229
 21
4656.845151952301
 31
0.0
  0
LINE
  5
86
  8
F2_02STRUCTURE
  6
CONTINUOUS
 62
    40
 10
215500.9968883406
 20
4656.845151952301
 30
0.0
 11
215500.9968883406
 21
9204.022093830768
 31
0.0
  0
POLYLINE
  5
87
  8
F2_02STRUCTURE
  6
CONTINUOUS
 62
    40
 66
     1
 10
0.0
 20
0.0
 30
0.0
  0
VERTEX
  5
1FB
  8
F2_02STRUCTURE
  6
CONTINUOUS
 62
    40
 10
215500.9968883406
 20
11432.13879535122
 30
0.0
  0
VERTEX
  5
1FC
  8
F2_02STRUCTURE
  6
CONTINUOUS
 62
    40
 10
215500.9968883406
 20
94918.3074482399
 30
0.0
  0
VERTEX
  5
1FD
  8
F2_02STRUCTURE
  6
CONTINUOUS
 62
    40
 10
322315.8455770519
 20
94918.3074482399
 30
0.0
  0
SEQEND
  5
321
  8
F2_02STRUCTURE
  6
CONTINUOUS
 62
    40
  0
LINE
  5
88
  8
F2_02STRUCTURE
  6
CONTINUOUS
 62
    40
 10
337412.7079715398
 20
94918.3074482399
 30
0.0
 11
345916.0611877122
 21
94918.3074482399
 31
0.0
  0
POLYLINE
  5
89
  8
F2_02STRUCTURE
  6
CONTINUOUS
 62
    40
 66
     1
 10
0.0
 20
0.0
 30
0.0
  0
VERTEX
  5
1FE
  8
F2_02STRUCTURE
  6
CONTINUOUS
 62
    40
 10
346234.3685273551
 20
94918.3074482399
 30
0.0
  0
VERTEX
  5
1FF
  8
F2_02STRUCTURE
  6
CONTINUOUS
 62
    40
 10
351327.2859616401
 20
94918.3074482399
 30
0.0
  0
VERTEX
  5
200
  8
F2_02STRUCTURE
  6
CONTINUOUS
 62
    40
 10
351327.2859616401
 20
-24990.74850909531
 30
0.0
  0
SEQEND
  5
322
  8
F2_02STRUCTURE
  6
CONTINUOUS
 62
    40
  0
LINE
  5
8A
  8
F2_02STRUCTURE
  6
CONTINUOUS
 62
    40
 10
351008.9786219973
 20
94645.47683172718
 30
0.0
 11
351008.9786219973
 21
-24672.44612316382
 31
0.0
  0
LINE
  5
8B
  8
F2_02STRUCTURE
  6
CONTINUOUS
 62
    40
 10
274569.7446306292
 20
291.5552877489754
 30
0.0
 11
274569.7446306292
 21
2474.200219850638
 31
0.0
  0
LINE
  5
8C
  8
F2_02STRUCTURE
  6
CONTINUOUS
 62
    40
 10
274842.5794931802
 20
291.5552877489754
 30
0.0
 11
274842.5794931802
 21
2610.615528106995
 31
0.0
  0
LINE
  5
8D
  8
F2_02STRUCTURE
  6
CONTINUOUS
 62
    40
 10
257108.313427366
 20
12068.74356721421
 30
0.0
 11
231598.2537788487
 21
12068.74356721421
 31
0.0
  0
LINE
  5
8E
  8
F2_02STRUCTURE
  6
CONTINUOUS
 62
    40
 10
256790.0060877232
 20
12387.0459531457
 30
0.0
 11
230825.2216682876
 21
12387.0459531457
 31
0.0
  0
LINE
  5
8F
  8
F2_02STRUCTURE
  6
CONTINUOUS
 62
    40
 10
230506.9143286448
 20
11750.44118128272
 30
0.0
 11
230506.9143286448
 21
29666.31833228387
 31
0.0
  0
LINE
  5
90
  8
F2_02STRUCTURE
  6
CONTINUOUS
 62
    40
 10
230825.2216682876
 20
12387.0459531457
 30
0.0
 11
230825.2216682876
 21
29939.14894879659
 31
0.0
  0
LINE
  5
91
  8
F2_02STRUCTURE
  6
CONTINUOUS
 62
    40
 10
230506.9143286448
 20
29666.31833228387
 30
0.0
 11
220457.4968913501
 21
29666.31833228387
 31
0.0
  0
LINE
  5
92
  8
F2_02STRUCTURE
  6
CONTINUOUS
 62
    40
 10
230825.2216682876
 20
29939.14894879659
 30
0.0
 11
220775.804230993
 21
29939.14894879659
 31
0.0
  0
LINE
  5
93
  8
F2_02STRUCTURE
  6
CONTINUOUS
 62
    40
 10
220457.4968913501
 20
29666.31833228387
 30
0.0
 11
220457.4968913501
 21
33849.72111881207
 31
0.0
  0
LINE
  5
94
  8
F2_02STRUCTURE
  6
CONTINUOUS
 62
    40
 10
220775.804230993
 20
29939.14894879659
 30
0.0
 11
220775.804230993
 21
33576.89050229936
 31
0.0
  0
LINE
  5
95
  8
F2_02STRUCTURE
  6
CONTINUOUS
 62
    40
 10
220457.4968913501
 20
33849.72111881207
 30
0.0
 11
230506.9143286448
 21
33849.72111881207
 31
0.0
  0
LINE
  5
96
  8
F2_02STRUCTURE
  6
CONTINUOUS
 62
    40
 10
220775.804230993
 20
33576.89050229936
 30
0.0
 11
230825.2216682876
 21
33576.89050229936
 31
0.0
  0
LINE
  5
97
  8
F2_02STRUCTURE
  6
CONTINUOUS
 62
    40
 10
230506.9143286448
 20
33849.72111881207
 30
0.0
 11
230506.9143286448
 21
47400.3084056099
 31
0.0
  0
LINE
  5
98
  8
F2_02STRUCTURE
  6
CONTINUOUS
 62
    40
 10
230825.2216682876
 20
33576.89050229936
 30
0.0
 11
230825.2216682876
 21
47673.13902212262
 31
0.0
  0
LINE
  5
99
  8
F2_02STRUCTURE
  6
CONTINUOUS
 62
    40
 10
230506.9143286448
 20
47400.3084056099
 30
0.0
 11
220457.4968913501
 21
47400.3084056099
 31
0.0
  0
LINE
  5
9A
  8
F2_02STRUCTURE
  6
CONTINUOUS
 62
    40
 10
230825.2216682876
 20
47673.13902212262
 30
0.0
 11
220775.804230993
 21
47673.13902212262
 31
0.0
  0
LINE
  5
9B
  8
F2_02STRUCTURE
  6
CONTINUOUS
 62
    40
 10
220457.4968913501
 20
47400.3084056099
 30
0.0
 11
220457.4968913501
 21
51583.7111921381
 31
0.0
  0
LINE
  5
9C
  8
F2_02STRUCTURE
  6
CONTINUOUS
 62
    40
 10
220775.804230993
 20
47673.13902212262
 30
0.0
 11
220775.804230993
 21
51310.88057562539
 31
0.0
  0
LINE
  5
9D
  8
F2_02STRUCTURE
  6
CONTINUOUS
 62
    40
 10
220457.4968913501
 20
51583.7111921381
 30
0.0
 11
230506.9143286448
 21
51583.7111921381
 31
0.0
  0
LINE
  5
9E
  8
F2_02STRUCTURE
  6
CONTINUOUS
 62
    40
 10
220775.804230993
 20
51310.88057562539
 30
0.0
 11
230825.2216682876
 21
51310.88057562539
 31
0.0
  0
LINE
  5
9F
  8
F2_02STRUCTURE
  6
CONTINUOUS
 62
    40
 10
230506.9143286448
 20
51583.7111921381
 30
0.0
 11
230506.9143286448
 21
88734.14680728519
 31
0.0
  0
LINE
  5
A0
  8
F2_02STRUCTURE
  6
CONTINUOUS
 62
    40
 10
230825.2216682876
 20
51310.88057562539
 30
0.0
 11
230825.2216682876
 21
88415.84442135369
 31
0.0
  0
LINE
  5
A1
  8
F2_02STRUCTURE
  6
CONTINUOUS
 62
    40
 10
230506.9143286448
 20
88734.14680728519
 30
0.0
 11
275206.3593099148
 21
88734.14680728519
 31
0.0
  0
LINE
  5
A2
  8
F2_02STRUCTURE
  6
CONTINUOUS
 62
    40
 10
230825.2216682876
 20
88415.84442135369
 30
0.0
 11
274933.5244473639
 21
88415.84442135369
 31
0.0
  0
LINE
  5
A3
  8
F2_02STRUCTURE
  6
CONTINUOUS
 62
    40
 10
274842.5794931802
 20
337.0270571677611
 30
0.0
 11
299670.55198532
 21
337.0270571677611
 31
0.0
  0
LINE
  5
A4
  8
F2_02STRUCTURE
  6
CONTINUOUS
 62
    40
 10
274569.7446306292
 20
2474.200219850638
 30
0.0
 11
271477.6161883847
 21
5520.808770909214
 31
0.0
  0
LINE
  5
A5
  8
F2_02STRUCTURE
  6
CONTINUOUS
 62
    40
 10
274842.5794931802
 20
2610.615528106995
 30
0.0
 11
271932.340959303
 21
5520.808770909214
 31
0.0
  0
LINE
  5
A6
  8
F2_02STRUCTURE
  6
CONTINUOUS
 62
    40
 10
271477.6161883847
 20
5520.808770909214
 30
0.0
 11
274069.5473826191
 21
8112.699627779941
 31
0.0
  0
LINE
  5
A7
  8
F2_02STRUCTURE
  6
CONTINUOUS
 62
    40
 10
271932.340959303
 20
5520.808770909214
 30
0.0
 11
274478.7996764455
 21
8112.699627779941
 31
0.0
  0
LINE
  5
A8
  8
F2_02STRUCTURE
  6
CONTINUOUS
 62
    40
 10
266839.4235250179
 20
15342.7109653667
 30
0.0
 11
265065.9969184365
 21
17116.10997269931
 31
0.0
  0
LINE
  5
A9
  8
F2_02STRUCTURE
  6
CONTINUOUS
 62
    40
 10
274478.7996764455
 20
8112.699627779941
 30
0.0
 11
272523.4831614968
 21
10067.98571278768
 31
0.0
  0
LINE
  5
AA
  8
F2_02STRUCTURE
  6
CONTINUOUS
 62
    40
 10
267066.785910477
 20
15570.06981246063
 30
0.0
 11
265065.9969184365
 21
17570.82766688715
 31
0.0
  0
LINE
  5
AB
  8
F2_02STRUCTURE
  6
CONTINUOUS
 62
    40
 10
265065.9969184365
 20
17116.10997269931
 30
0.0
 11
262428.5932471103
 21
14524.21911582858
 31
0.0
  0
LINE
  5
AC
  8
F2_02STRUCTURE
  6
CONTINUOUS
 62
    40
 10
265065.9969184365
 20
17570.82766688715
 30
0.0
 11
262428.5932471103
 21
14933.46504059764
 31
0.0
  0
LINE
  5
AD
  8
F2_02STRUCTURE
  6
CONTINUOUS
 62
    40
 10
262428.5932471103
 20
14524.21911582858
 30
0.0
 11
259836.6620528759
 21
17161.58174211809
 31
0.0
  0
POLYLINE
  5
AE
  8
F2_02STRUCTURE
  6
CONTINUOUS
 62
    40
 66
     1
 10
0.0
 20
0.0
 30
0.0
  0
VERTEX
  5
201
  8
F2_02STRUCTURE
  6
CONTINUOUS
 62
    40
 10
262428.5932471103
 20
14933.46504059764
 30
0.0
  0
VERTEX
  5
202
  8
F2_02STRUCTURE
  6
CONTINUOUS
 62
    40
 10
259927.6070070596
 20
17434.4123586308
 30
0.0
  0
VERTEX
  5
203
  8
F2_02STRUCTURE
  6
CONTINUOUS
 62
    40
 10
259154.5748964984
 20
17434.4123586308
 30
0.0
  0
SEQEND
  5
323
  8
F2_02STRUCTURE
  6
CONTINUOUS
 62
    40
  0
LINE
  5
AF
  8
F2_02STRUCTURE
  6
CONTINUOUS
 62
    40
 10
296805.7859285346
 20
337.0270571677611
 30
0.0
 11
294986.8868448614
 21
7567.03839475452
 31
0.0
  0
LINE
  5
B0
  8
F2_02STRUCTURE
  6
CONTINUOUS
 62
    40
 10
297078.6207910856
 20
655.3294430992537
 30
0.0
 11
295350.666661596
 21
7430.62308649817
 31
0.0
  0
LINE
  5
B1
  8
F2_02STRUCTURE
  6
CONTINUOUS
 62
    40
 10
298079.0152871059
 20
16752.33581734903
 30
0.0
 11
296851.2584056265
 21
16752.33581734903
 31
0.0
  0
LINE
  5
B2
  8
F2_02STRUCTURE
  6
CONTINUOUS
 62
    40
 10
298397.3226267487
 20
17070.63820328052
 30
0.0
 11
296987.6758369019
 21
17070.63820328052
 31
0.0
  0
LINE
  5
B3
  8
F2_02STRUCTURE
  6
CONTINUOUS
 62
    40
 10
296851.2584056265
 20
16752.33581734903
 30
0.0
 11
294668.5795052185
 21
19116.86782712583
 31
0.0
  0
LINE
  5
B4
  8
F2_02STRUCTURE
  6
CONTINUOUS
 62
    40
 10
296987.6758369019
 20
17070.63820328052
 30
0.0
 11
294895.9418906777
 21
19344.22667421975
 31
0.0
  0
LINE
  5
B5
  8
F2_02STRUCTURE
  6
CONTINUOUS
 62
    40
 10
294668.5795052185
 20
19116.86782712583
 30
0.0
 11
292622.3180360862
 21
21981.58930050927
 31
0.0
  0
LINE
  5
B6
  8
F2_02STRUCTURE
  6
CONTINUOUS
 62
    40
 10
294895.9418906777
 20
19298.75490480097
 30
0.0
 11
292895.1528986371
 21
22163.47637818441
 31
0.0
  0
LINE
  5
B7
  8
F2_02STRUCTURE
  6
CONTINUOUS
 62
    40
 10
292622.3180360862
 20
21981.58930050927
 30
0.0
 11
291212.6712462394
 21
24709.89546563635
 31
0.0
  0
LINE
  5
B8
  8
F2_02STRUCTURE
  6
CONTINUOUS
 62
    40
 10
292895.1528986371
 20
22163.47637818441
 30
0.0
 11
291712.8684942495
 21
24437.06484912364
 31
0.0
  0
LINE
  5
B9
  8
F2_02STRUCTURE
  6
CONTINUOUS
 62
    40
 10
291212.6712462394
 20
24709.89546563635
 30
0.0
 11
294668.5795052185
 21
24709.89546563635
 31
0.0
  0
LINE
  5
BA
  8
F2_02STRUCTURE
  6
CONTINUOUS
 62
    40
 10
291712.8684942495
 20
24437.06484912364
 30
0.0
 11
294986.8868448614
 21
24437.06484912364
 31
0.0
  0
LINE
  5
BB
  8
F2_02STRUCTURE
  6
CONTINUOUS
 62
    40
 10
294668.5795052185
 20
24709.89546563635
 30
0.0
 11
294668.5795052185
 21
26574.23801180652
 31
0.0
  0
LINE
  5
BC
  8
F2_02STRUCTURE
  6
CONTINUOUS
 62
    40
 10
294986.8868448614
 20
24437.06484912364
 30
0.0
 11
294986.8868448614
 21
26255.93562587503
 31
0.0
  0
POLYLINE
  5
BD
  8
F2_02STRUCTURE
  6
CONTINUOUS
 62
    40
 66
     1
 10
0.0
 20
0.0
 30
0.0
  0
VERTEX
  5
204
  8
F2_02STRUCTURE
  6
CONTINUOUS
 62
    40
 10
294668.5795052185
 20
26574.23801180652
 30
0.0
  0
VERTEX
  5
205
  8
F2_02STRUCTURE
  6
CONTINUOUS
 62
    40
 10
296487.4785888918
 20
26574.23801180652
 30
0.0
  0
VERTEX
  5
206
  8
F2_02STRUCTURE
  6
CONTINUOUS
 62
    40
 10
296487.4785888918
 20
35031.98712370047
 30
0.0
  0
SEQEND
  5
324
  8
F2_02STRUCTURE
  6
CONTINUOUS
 62
    40
  0
LINE
  5
BE
  8
F2_02STRUCTURE
  6
CONTINUOUS
 62
    40
 10
304445.1620799623
 20
34713.68473776897
 30
0.0
 11
311766.2308917471
 21
34713.68473776897
 31
0.0
  0
LINE
  5
BF
  8
F2_02STRUCTURE
  6
CONTINUOUS
 62
    40
 10
318678.0474097054
 20
37896.70859708391
 30
0.0
 11
318678.0474097054
 21
88415.84442135369
 31
0.0
  0
LINE
  5
C0
  8
F2_02STRUCTURE
  6
CONTINUOUS
 62
    40
 10
318950.8822722564
 20
33122.17280811151
 30
0.0
 11
318950.8822722564
 21
88734.14680728519
 31
0.0
  0
POLYLINE
  5
C1
  8
F2_02STRUCTURE
  6
CONTINUOUS
 62
    40
 66
     1
 10
0.0
 20
0.0
 30
0.0
  0
VERTEX
  5
207
  8
F2_02STRUCTURE
  6
CONTINUOUS
 62
    40
 10
247422.675806806
 20
17616.29943630593
 30
0.0
  0
VERTEX
  5
208
  8
F2_02STRUCTURE
  6
CONTINUOUS
 62
    40
 10
247422.675806806
 20
17707.2429751435
 30
0.0
  0
VERTEX
  5
209
  8
F2_02STRUCTURE
  6
CONTINUOUS
 62
    40
 10
256790.0060877232
 20
17707.2429751435
 30
0.0
  0
VERTEX
  5
20A
  8
F2_02STRUCTURE
  6
CONTINUOUS
 62
    40
 10
256790.0060877232
 20
12387.0459531457
 30
0.0
  0
SEQEND
  5
325
  8
F2_02STRUCTURE
  6
CONTINUOUS
 62
    40
  0
LINE
  5
C2
  8
F2_02STRUCTURE
  6
CONTINUOUS
 62
    40
 10
257062.8409502742
 20
17707.2429751435
 30
0.0
 11
257108.313427366
 21
12068.74356721421
 31
0.0
  0
POLYLINE
  5
C3
  8
F2_02STRUCTURE
  6
CONTINUOUS
 62
    40
 66
     1
 10
0.0
 20
0.0
 30
0.0
  0
VERTEX
  5
20B
  8
F2_02STRUCTURE
  6
CONTINUOUS
 62
    40
 10
256699.0611335395
 20
12387.0459531457
 30
0.0
  0
VERTEX
  5
20C
  8
F2_02STRUCTURE
  6
CONTINUOUS
 62
    40
 10
256699.0611335395
 20
17616.29943630593
 30
0.0
  0
VERTEX
  5
20D
  8
F2_02STRUCTURE
  6
CONTINUOUS
 62
    40
 10
247422.675806806
 20
17616.29943630593
 30
0.0
  0
SEQEND
  5
326
  8
F2_02STRUCTURE
  6
CONTINUOUS
 62
    40
  0
POLYLINE
  5
C4
  8
F2_02STRUCTURE
  6
CONTINUOUS
 62
    40
 66
     1
 10
0.0
 20
0.0
 30
0.0
  0
VERTEX
  5
20E
  8
F2_02STRUCTURE
  6
CONTINUOUS
 62
    40
 10
238828.3776364499
 20
14887.99327117886
 30
0.0
  0
VERTEX
  5
20F
  8
F2_02STRUCTURE
  6
CONTINUOUS
 62
    40
 10
238828.3776364499
 20
29893.6771793778
 30
0.0
  0
VERTEX
  5
210
  8
F2_02STRUCTURE
  6
CONTINUOUS
 62
    40
 10
253515.9877371114
 20
29893.6771793778
 30
0.0
  0
VERTEX
  5
211
  8
F2_02STRUCTURE
  6
CONTINUOUS
 62
    40
 10
253515.9877371114
 20
29802.73364054023
 30
0.0
  0
VERTEX
  5
212
  8
F2_02STRUCTURE
  6
CONTINUOUS
 62
    40
 10
238919.3225906336
 20
29802.73364054023
 30
0.0
  0
VERTEX
  5
213
  8
F2_02STRUCTURE
  6
CONTINUOUS
 62
    40
 10
238919.3225906336
 20
22390.83522527833
 30
0.0
  0
VERTEX
  5
214
  8
F2_02STRUCTURE
  6
CONTINUOUS
 62
    40
 10
254652.7996644072
 20
22390.83522527833
 30
0.0
  0
VERTEX
  5
215
  8
F2_02STRUCTURE
  6
CONTINUOUS
 62
    40
 10
254652.7996644072
 20
22299.89168644076
 30
0.0
  0
VERTEX
  5
216
  8
F2_02STRUCTURE
  6
CONTINUOUS
 62
    40
 10
238919.3225906336
 20
22299.89168644076
 30
0.0
  0
VERTEX
  5
217
  8
F2_02STRUCTURE
  6
CONTINUOUS
 62
    40
 10
238919.3225906336
 20
14887.99327117886
 30
0.0
  0
VERTEX
  5
218
  8
F2_02STRUCTURE
  6
CONTINUOUS
 62
    40
 10
238828.3776364499
 20
14887.99327117886
 30
0.0
  0
SEQEND
  5
327
  8
F2_02STRUCTURE
  6
CONTINUOUS
 62
    40
  0
POLYLINE
  5
C5
  8
F2_02STRUCTURE
  6
CONTINUOUS
 62
    40
 66
     1
 10
0.0
 20
0.0
 30
0.0
  0
VERTEX
  5
219
  8
F2_02STRUCTURE
  6
CONTINUOUS
 62
    40
 10
238828.3776364499
 20
34168.02350474356
 30
0.0
  0
VERTEX
  5
21A
  8
F2_02STRUCTURE
  6
CONTINUOUS
 62
    40
 10
253515.9877371114
 20
34168.02350474356
 30
0.0
  0
VERTEX
  5
21B
  8
F2_02STRUCTURE
  6
CONTINUOUS
 62
    40
 10
253515.9877371114
 20
34077.07996590598
 30
0.0
  0
VERTEX
  5
21C
  8
F2_02STRUCTURE
  6
CONTINUOUS
 62
    40
 10
238828.3776364499
 20
34077.07996590598
 30
0.0
  0
VERTEX
  5
21D
  8
F2_02STRUCTURE
  6
CONTINUOUS
 62
    40
 10
238828.3776364499
 20
34168.02350474356
 30
0.0
  0
SEQEND
  5
328
  8
F2_02STRUCTURE
  6
CONTINUOUS
 62
    40
  0
POLYLINE
  5
C6
  8
F2_02STRUCTURE
  6
CONTINUOUS
 62
    40
 66
     1
 10
0.0
 20
0.0
 30
0.0
  0
VERTEX
  5
21E
  8
F2_02STRUCTURE
  6
CONTINUOUS
 62
    40
 10
238555.5427738989
 20
39033.50283255352
 30
0.0
  0
VERTEX
  5
21F
  8
F2_02STRUCTURE
  6
CONTINUOUS
 62
    40
 10
238555.5427738989
 20
47400.3084056099
 30
0.0
  0
VERTEX
  5
220
  8
F2_02STRUCTURE
  6
CONTINUOUS
 62
    40
 10
249423.4647988466
 20
47400.3084056099
 30
0.0
  0
VERTEX
  5
221
  8
F2_02STRUCTURE
  6
CONTINUOUS
 62
    40
 10
249423.4647988466
 20
51174.46526736903
 30
0.0
  0
VERTEX
  5
222
  8
F2_02STRUCTURE
  6
CONTINUOUS
 62
    40
 10
238510.0702968071
 20
51174.46526736903
 30
0.0
  0
VERTEX
  5
223
  8
F2_02STRUCTURE
  6
CONTINUOUS
 62
    40
 10
238510.0702968071
 20
67316.94341103759
 30
0.0
  0
VERTEX
  5
224
  8
F2_02STRUCTURE
  6
CONTINUOUS
 62
    40
 10
247377.2033297142
 20
67316.94341103759
 30
0.0
  0
VERTEX
  5
225
  8
F2_02STRUCTURE
  6
CONTINUOUS
 62
    40
 10
247377.2033297142
 20
67862.60464406302
 30
0.0
  0
VERTEX
  5
226
  8
F2_02STRUCTURE
  6
CONTINUOUS
 62
    40
 10
253606.932691295
 20
67862.60464406302
 30
0.0
  0
SEQEND
  5
329
  8
F2_02STRUCTURE
  6
CONTINUOUS
 62
    40
  0
LINE
  5
C7
  8
F2_02STRUCTURE
  6
CONTINUOUS
 62
    40
 10
253606.932691295
 20
69044.87064895142
 30
0.0
 11
257244.7308586415
 21
69044.87064895142
 31
0.0
  0
POLYLINE
  5
C8
  8
F2_02STRUCTURE
  6
CONTINUOUS
 62
    40
 66
     1
 10
0.0
 20
0.0
 30
0.0
  0
VERTEX
  5
227
  8
F2_02STRUCTURE
  6
CONTINUOUS
 62
    40
 10
253925.2400309378
 20
67771.66110522544
 30
0.0
  0
VERTEX
  5
228
  8
F2_02STRUCTURE
  6
CONTINUOUS
 62
    40
 10
247559.0932380815
 20
67771.66110522544
 30
0.0
  0
VERTEX
  5
229
  8
F2_02STRUCTURE
  6
CONTINUOUS
 62
    40
 10
247559.0932380815
 20
67225.99987220003
 30
0.0
  0
VERTEX
  5
22A
  8
F2_02STRUCTURE
  6
CONTINUOUS
 62
    40
 10
238601.0152509907
 20
67225.99987220003
 30
0.0
  0
VERTEX
  5
22B
  8
F2_02STRUCTURE
  6
CONTINUOUS
 62
    40
 10
238601.0152509907
 20
64042.97601288509
 30
0.0
  0
VERTEX
  5
22C
  8
F2_02STRUCTURE
  6
CONTINUOUS
 62
    40
 10
256790.0060877232
 20
64042.97601288509
 30
0.0
  0
VERTEX
  5
22D
  8
F2_02STRUCTURE
  6
CONTINUOUS
 62
    40
 10
256790.0060877232
 20
63906.56070462875
 30
0.0
  0
VERTEX
  5
22E
  8
F2_02STRUCTURE
  6
CONTINUOUS
 62
    40
 10
238601.0152509907
 20
63906.56070462875
 30
0.0
  0
VERTEX
  5
22F
  8
F2_02STRUCTURE
  6
CONTINUOUS
 62
    40
 10
238601.0152509907
 20
51265.4088062066
 30
0.0
  0
VERTEX
  5
230
  8
F2_02STRUCTURE
  6
CONTINUOUS
 62
    40
 10
249514.4097530302
 20
51265.4088062066
 30
0.0
  0
VERTEX
  5
231
  8
F2_02STRUCTURE
  6
CONTINUOUS
 62
    40
 10
249514.4097530302
 20
47309.36486677233
 30
0.0
  0
VERTEX
  5
232
  8
F2_02STRUCTURE
  6
CONTINUOUS
 62
    40
 10
238646.4877280826
 20
47309.36486677233
 30
0.0
  0
VERTEX
  5
233
  8
F2_02STRUCTURE
  6
CONTINUOUS
 62
    40
 10
238646.4877280826
 20
39124.4463713911
 30
0.0
  0
VERTEX
  5
234
  8
F2_02STRUCTURE
  6
CONTINUOUS
 62
    40
 10
256790.0060877232
 20
39124.4463713911
 30
0.0
  0
VERTEX
  5
235
  8
F2_02STRUCTURE
  6
CONTINUOUS
 62
    40
 10
256790.0060877232
 20
39033.50283255352
 30
0.0
  0
VERTEX
  5
236
  8
F2_02STRUCTURE
  6
CONTINUOUS
 62
    40
 10
238555.5427738989
 20
39033.50283255352
 30
0.0
  0
SEQEND
  5
32A
  8
F2_02STRUCTURE
  6
CONTINUOUS
 62
    40
  0
POLYLINE
  5
C9
  8
F2_02STRUCTURE
  6
CONTINUOUS
 62
    40
 66
     1
 10
0.0
 20
0.0
 30
0.0
  0
VERTEX
  5
237
  8
F2_02STRUCTURE
  6
CONTINUOUS
 62
    40
 10
296532.9510659836
 20
66362.03625324312
 30
0.0
  0
VERTEX
  5
238
  8
F2_02STRUCTURE
  6
CONTINUOUS
 62
    40
 10
296532.9510659836
 20
67316.94341103759
 30
0.0
  0
VERTEX
  5
239
  8
F2_02STRUCTURE
  6
CONTINUOUS
 62
    40
 10
302808.1529046563
 20
67316.94341103759
 30
0.0
  0
SEQEND
  5
32B
  8
F2_02STRUCTURE
  6
CONTINUOUS
 62
    40
  0
POLYLINE
  5
CA
  8
F2_02STRUCTURE
  6
CONTINUOUS
 62
    40
 66
     1
 10
0.0
 20
0.0
 30
0.0
  0
VERTEX
  5
23A
  8
F2_02STRUCTURE
  6
CONTINUOUS
 62
    40
 10
302717.2079504727
 20
67180.52810278125
 30
0.0
  0
VERTEX
  5
23B
  8
F2_02STRUCTURE
  6
CONTINUOUS
 62
    40
 10
296623.8960201673
 20
67180.52810278125
 30
0.0
  0
VERTEX
  5
23C
  8
F2_02STRUCTURE
  6
CONTINUOUS
 62
    40
 10
296623.8960201673
 20
66362.03625324312
 30
0.0
  0
VERTEX
  5
23D
  8
F2_02STRUCTURE
  6
CONTINUOUS
 62
    40
 10
296532.9510659836
 20
66362.03625324312
 30
0.0
  0
SEQEND
  5
32C
  8
F2_02STRUCTURE
  6
CONTINUOUS
 62
    40
  0
POLYLINE
  5
CB
  8
F2_02STRUCTURE
  6
CONTINUOUS
 62
    40
 66
     1
 10
0.0
 20
0.0
 30
0.0
  0
VERTEX
  5
23E
  8
F2_02STRUCTURE
  6
CONTINUOUS
 62
    40
 10
296532.9510659836
 20
64815.99609300443
 30
0.0
  0
VERTEX
  5
23F
  8
F2_02STRUCTURE
  6
CONTINUOUS
 62
    40
 10
296623.8960201673
 20
64815.99609300443
 30
0.0
  0
VERTEX
  5
240
  8
F2_02STRUCTURE
  6
CONTINUOUS
 62
    40
 10
296623.8960201673
 20
64088.44778230388
 30
0.0
  0
VERTEX
  5
241
  8
F2_02STRUCTURE
  6
CONTINUOUS
 62
    40
 10
302717.2079504727
 20
64088.44778230388
 30
0.0
  0
SEQEND
  5
32D
  8
F2_02STRUCTURE
  6
CONTINUOUS
 62
    40
  0
POLYLINE
  5
CC
  8
F2_02STRUCTURE
  6
CONTINUOUS
 62
    40
 66
     1
 10
0.0
 20
0.0
 30
0.0
  0
VERTEX
  5
242
  8
F2_02STRUCTURE
  6
CONTINUOUS
 62
    40
 10
302808.1529046563
 20
63997.50424346632
 30
0.0
  0
VERTEX
  5
243
  8
F2_02STRUCTURE
  6
CONTINUOUS
 62
    40
 10
296532.9510659836
 20
63997.50424346632
 30
0.0
  0
VERTEX
  5
244
  8
F2_02STRUCTURE
  6
CONTINUOUS
 62
    40
 10
296532.9510659836
 20
64815.99609300443
 30
0.0
  0
SEQEND
  5
32E
  8
F2_02STRUCTURE
  6
CONTINUOUS
 62
    40
  0
LINE
  5
CD
  8
F2_02STRUCTURE
  6
CONTINUOUS
 62
    40
 10
230506.9143286448
 20
13523.84018861532
 30
0.0
 11
230506.9143286448
 21
13523.84018861532
 31
0.0
  0
POLYLINE
  5
CF
  8
F2_05MULTIPURPOSE
  6
CONTINUOUS
 62
   195
 66
     1
 10
0.0
 20
0.0
 30
0.0
  0
VERTEX
  5
245
  8
F2_05MULTIPURPOSE
  6
CONTINUOUS
 62
   195
 10
256790.0060877232
 20
68772.0400324387
 30
0.0
  0
VERTEX
  5
246
  8
F2_05MULTIPURPOSE
  6
CONTINUOUS
 62
   195
 10
255380.3592978764
 20
68772.0400324387
 30
0.0
  0
VERTEX
  5
247
  8
F2_05MULTIPURPOSE
  6
CONTINUOUS
 62
   195
 10
255380.3592978764
 20
64042.97601288509
 30
0.0
  0
VERTEX
  5
248
  8
F2_05MULTIPURPOSE
  6
CONTINUOUS
 62
   195
 10
256790.0060877232
 20
64042.97601288509
 30
0.0
  0
VERTEX
  5
249
  8
F2_05MULTIPURPOSE
  6
CONTINUOUS
 62
   195
 10
256790.0060877232
 20
68772.0400324387
 30
0.0
  0
SEQEND
  5
32F
  8
F2_05MULTIPURPOSE
  6
CONTINUOUS
 62
   195
  0
LINE
  5
D0
  8
F2_02STRUCTURE
  6
CONTINUOUS
 62
    40
 10
215500.9968883406
 20
11432.13879535122
 30
0.0
 11
231007.1115766549
 21
11432.13879535122
 31
0.0
  0
LINE
  5
D1
  8
F2_02STRUCTURE
  6
CONTINUOUS
 62
    40
 10
215500.9968883406
 20
11750.44118128272
 30
0.0
 11
230506.9143286448
 21
11750.44118128272
 31
0.0
  0
LINE
  5
D2
  8
F2_02STRUCTURE
  6
CONTINUOUS
 62
    40
 10
231007.1115766549
 20
11432.13879535122
 30
0.0
 11
231598.2537788487
 21
12068.74356721421
 31
0.0
  0
LINE
  5
D3
  8
F2_02STRUCTURE
  6
CONTINUOUS
 62
    40
 10
215819.3042279833
 20
4656.845151952301
 30
0.0
 11
215819.3042279833
 21
8885.719707899276
 31
0.0
  0
LINE
  5
D4
  8
F2_02STRUCTURE
  6
CONTINUOUS
 62
    40
 10
215819.3042279833
 20
11432.13879535122
 30
0.0
 11
215819.3042279833
 21
94645.47683172718
 31
0.0
  0
LINE
  5
D5
  8
F2_02STRUCTURE
  6
CONTINUOUS
 62
    40
 10
215500.9968883406
 20
9204.022093830768
 30
0.0
 11
234690.3822210933
 21
9204.022093830768
 31
0.0
  0
LINE
  5
D6
  8
F2_02STRUCTURE
  6
CONTINUOUS
 62
    40
 10
215819.3042279833
 20
8885.719707899276
 30
0.0
 11
234826.7996523688
 21
8885.719707899276
 31
0.0
  0
LINE
  5
D7
  8
F2_02STRUCTURE
  6
CONTINUOUS
 62
    40
 10
234690.3822210933
 20
9204.022093830768
 30
0.0
 11
235599.8317629299
 21
10113.45748220647
 31
0.0
  0
LINE
  5
D8
  8
F2_02STRUCTURE
  6
CONTINUOUS
 62
    40
 10
234826.7996523688
 20
8885.719707899276
 30
0.0
 11
235736.2491942054
 21
9840.626865693754
 31
0.0
  0
LINE
  5
D9
  8
F2_02STRUCTURE
  6
CONTINUOUS
 62
    40
 10
235599.8317629299
 20
10113.45748220647
 30
0.0
 11
257699.4556295598
 21
10113.45748220647
 31
0.0
  0
LINE
  5
DA
  8
F2_02STRUCTURE
  6
CONTINUOUS
 62
    40
 10
235736.2491942054
 20
9840.626865693754
 30
0.0
 11
257835.8730608354
 21
9840.626865693754
 31
0.0
  0
LINE
  5
DB
  8
F2_02STRUCTURE
  6
CONTINUOUS
 62
    40
 10
257699.4556295598
 20
10113.45748220647
 30
0.0
 11
259154.5748964984
 21
11568.55410360757
 31
0.0
  0
LINE
  5
DC
  8
F2_02STRUCTURE
  6
CONTINUOUS
 62
    40
 10
257835.8730608354
 20
9840.626865693754
 30
0.0
 11
259472.8822361412
 21
11477.61056477
 31
0.0
  0
LINE
  5
DD
  8
F2_02STRUCTURE
  6
CONTINUOUS
 62
    40
 10
259154.5748964984
 20
11568.55410360757
 30
0.0
 11
259154.5748964984
 21
17434.4123586308
 31
0.0
  0
LINE
  5
DE
  8
F2_02STRUCTURE
  6
CONTINUOUS
 62
    40
 10
259472.8822361412
 20
11477.61056477
 30
0.0
 11
259472.8822361412
 21
17161.58174211809
 31
0.0
  0
LINE
  5
DF
  8
F2_02STRUCTURE
  6
CONTINUOUS
 62
    40
 10
272341.5932531295
 20
9840.626865693754
 30
0.0
 11
274069.5473826191
 21
8112.699627779941
 31
0.0
  0
LINE
  5
E0
  8
F2_02STRUCTURE
  6
CONTINUOUS
 62
    40
 10
209680.5198205861
 20
-32539.06223261357
 30
0.0
 11
257790.4005837435
 21
-32539.06223261357
 31
0.0
  0
LINE
  5
E1
  8
F2_02STRUCTURE
  6
CONTINUOUS
 62
    40
 10
209998.827160229
 20
-32220.75984668207
 30
0.0
 11
257472.0932441007
 21
-32220.75984668207
 31
0.0
  0
LINE
  5
E2
  8
F2_02STRUCTURE
  6
CONTINUOUS
 62
    40
 10
257790.4005837435
 20
-32539.06223261357
 30
0.0
 11
257790.4005837435
 21
-30902.07853353732
 31
0.0
  0
LINE
  5
E3
  8
F2_02STRUCTURE
  6
CONTINUOUS
 62
    40
 10
257472.0932441007
 20
-32220.75984668207
 30
0.0
 11
257472.0932441007
 21
-30629.24791702461
 31
0.0
  0
LINE
  5
E4
  8
F2_02STRUCTURE
  6
CONTINUOUS
 62
    40
 10
257790.4005837435
 20
-30902.07853353732
 30
0.0
 11
266248.2813228241
 21
-30902.07853353732
 31
0.0
  0
LINE
  5
E5
  8
F2_02STRUCTURE
  6
CONTINUOUS
 62
    40
 10
257472.0932441007
 20
-30629.24791702461
 30
0.0
 11
265929.9739831813
 21
-30629.24791702461
 31
0.0
  0
LINE
  5
E6
  8
F2_02STRUCTURE
  6
CONTINUOUS
 62
    40
 10
266248.2813228241
 20
-30902.07853353732
 30
0.0
 11
266248.2813228241
 21
-23763.01073478812
 31
0.0
  0
LINE
  5
E7
  8
F2_02STRUCTURE
  6
CONTINUOUS
 62
    40
 10
265929.9739831813
 20
-30629.24791702461
 30
0.0
 11
265929.9739831813
 21
-23717.53896536934
 31
0.0
  0
LINE
  5
E8
  8
F2_02STRUCTURE
  6
CONTINUOUS
 62
    40
 10
279480.7721565469
 20
-12122.23776357924
 30
0.0
 11
279480.7721565469
 21
-7666.004360538347
 31
0.0
  0
LINE
  5
E9
  8
F2_02STRUCTURE
  6
CONTINUOUS
 62
    40
 10
279162.4648169041
 20
-11894.87891648532
 30
0.0
 11
279162.4648169041
 21
-7666.004360538347
 31
0.0
  0
LINE
  5
EA
  8
F2_02STRUCTURE
  6
CONTINUOUS
 62
    40
 10
274569.7446306292
 20
2474.200219850638
 30
0.0
 11
274569.7446306292
 21
-13031.67315195494
 31
0.0
  0
LINE
  5
EB
  8
F2_02STRUCTURE
  6
CONTINUOUS
 62
    40
 10
274842.5794931802
 20
2474.200219850638
 30
0.0
 11
274842.5794931802
 21
-13077.14492137372
 31
0.0
  0
LINE
  5
EC
  8
F2_02STRUCTURE
  6
CONTINUOUS
 62
    40
 10
318678.0474097054
 20
37896.70859708391
 30
0.0
 11
297033.1483139938
 21
37896.70859708391
 31
0.0
  0
POLYLINE
  5
ED
  8
F2_02STRUCTURE
  6
CONTINUOUS
 62
    40
 66
     1
 10
0.0
 20
0.0
 30
0.0
  0
VERTEX
  5
24A
  8
F2_02STRUCTURE
  6
CONTINUOUS
 62
    40
 10
318950.8822722564
 20
37578.40621115241
 30
0.0
  0
VERTEX
  5
24B
  8
F2_02STRUCTURE
  6
CONTINUOUS
 62
    40
 10
297033.1483139938
 20
37578.40621115241
 30
0.0
  0
VERTEX
  5
24C
  8
F2_02STRUCTURE
  6
CONTINUOUS
 62
    40
 10
297033.1483139938
 20
37896.70859708391
 30
0.0
  0
SEQEND
  5
330
  8
F2_02STRUCTURE
  6
CONTINUOUS
 62
    40
  0
LINE
  5
EE
  8
F2_02STRUCTURE
  6
CONTINUOUS
 62
    40
 10
316722.7308947567
 20
29893.6771793778
 30
0.0
 11
311902.6483230225
 21
35031.98712370047
 31
0.0
  0
LINE
  5
EF
  8
F2_02STRUCTURE
  6
CONTINUOUS
 62
    40
 10
316586.3134634811
 20
29575.37479344631
 30
0.0
 11
311766.2308917471
 21
34713.68473776897
 31
0.0
  0
LINE
  5
F0
  8
F2_02STRUCTURE
  6
CONTINUOUS
 62
    40
 10
316722.7308947567
 20
29893.6771793778
 30
0.0
 11
319087.2997035319
 21
29893.6771793778
 31
0.0
  0
LINE
  5
F1
  8
F2_02STRUCTURE
  6
CONTINUOUS
 62
    40
 10
316586.3134634811
 20
29575.37479344631
 30
0.0
 11
318768.9923638891
 21
29575.37479344631
 31
0.0
  0
POLYLINE
  5
F2
  8
F2_02STRUCTURE
  6
CONTINUOUS
 62
    40
 66
     1
 10
0.0
 20
0.0
 30
0.0
  0
VERTEX
  5
24D
  8
F2_02STRUCTURE
  6
CONTINUOUS
 62
    40
 10
318950.8822722564
 20
33122.17280811151
 30
0.0
  0
VERTEX
  5
24E
  8
F2_02STRUCTURE
  6
CONTINUOUS
 62
    40
 10
318678.0474097054
 20
33122.17280811151
 30
0.0
  0
VERTEX
  5
24F
  8
F2_02STRUCTURE
  6
CONTINUOUS
 62
    40
 10
318678.0474097054
 20
37578.40621115241
 30
0.0
  0
SEQEND
  5
331
  8
F2_02STRUCTURE
  6
CONTINUOUS
 62
    40
  0
LINE
  5
F3
  8
F2_02STRUCTURE
  6
CONTINUOUS
 62
    40
 10
318768.9923638891
 20
29575.37479344631
 30
0.0
 11
318768.9923638891
 21
20571.96444852694
 31
0.0
  0
LINE
  5
F4
  8
F2_02STRUCTURE
  6
CONTINUOUS
 62
    40
 10
319087.2997035319
 20
29893.6771793778
 30
0.0
 11
319087.2997035319
 21
20571.96444852694
 31
0.0
  0
LINE
  5
F5
  8
F2_02STRUCTURE
  6
CONTINUOUS
 62
    40
 10
300489.0565729729
 20
337.0270571677611
 30
0.0
 11
299670.55198532
 21
337.0270571677611
 31
0.0
  0
LINE
  5
F6
  8
F2_02STRUCTURE
  6
CONTINUOUS
 62
    40
 10
300670.9464813403
 20
655.3294430992537
 30
0.0
 11
299988.8593249628
 21
655.3294430992537
 31
0.0
  0
LINE
  5
F7
  8
F2_02STRUCTURE
  6
CONTINUOUS
 62
    40
 10
300489.0565729729
 20
337.0270571677611
 30
0.0
 11
300807.3639126158
 21
-208.63417585766
 31
0.0
  0
LINE
  5
F8
  8
F2_02STRUCTURE
  6
CONTINUOUS
 62
    40
 10
300670.9464813403
 20
655.3294430992537
 30
0.0
 11
300989.2538209831
 21
64.1964406550469
 31
0.0
  0
LINE
  5
F9
  8
F2_02STRUCTURE
  6
CONTINUOUS
 62
    40
 10
300807.3639126158
 20
-208.63417585766
 30
0.0
 11
312766.6253877673
 21
-20943.76103082347
 31
0.0
  0
LINE
  5
FA
  8
F2_02STRUCTURE
  6
CONTINUOUS
 62
    40
 10
300989.2538209831
 20
64.1964406550469
 30
0.0
 11
312948.5152961346
 21
-20670.93041431077
 31
0.0
  0
LINE
  5
FB
  8
F2_02STRUCTURE
  6
CONTINUOUS
 62
    40
 10
312766.6253877673
 20
-20943.76103082347
 30
0.0
 11
322725.0978708784
 21
-22126.02703571188
 31
0.0
  0
LINE
  5
FC
  8
F2_02STRUCTURE
  6
CONTINUOUS
 62
    40
 10
312948.5152961346
 20
-20670.93041431077
 30
0.0
 11
322906.9877792457
 21
-21853.19641919916
 31
0.0
  0
LINE
  5
FD
  8
F2_02STRUCTURE
  6
CONTINUOUS
 62
    40
 10
322725.0978708784
 20
-22126.02703571188
 30
0.0
 11
325044.1942025617
 21
-25581.88151153951
 31
0.0
  0
LINE
  5
FE
  8
F2_02STRUCTURE
  6
CONTINUOUS
 62
    40
 10
322906.9877792457
 20
-21853.19641919916
 30
0.0
 11
325271.5565880209
 21
-25354.52266444559
 31
0.0
  0
LINE
  5
FF
  8
F2_02STRUCTURE
  6
CONTINUOUS
 62
    40
 10
325044.1942025617
 20
-25581.88151153951
 30
0.0
 11
329364.0795262857
 21
-29401.51014271742
 31
0.0
  0
LINE
  5
100
  8
F2_02STRUCTURE
  6
CONTINUOUS
 62
    40
 10
325271.5565880209
 20
-25354.52266444559
 30
0.0
 11
329545.9694346531
 21
-29174.1512956235
 31
0.0
  0
LINE
  5
101
  8
F2_02STRUCTURE
  6
CONTINUOUS
 62
    40
 10
348917.2446757731
 20
-25581.88151153951
 30
0.0
 11
348962.7171528649
 21
-24990.74850909531
 31
0.0
  0
LINE
  5
102
  8
F2_02STRUCTURE
  6
CONTINUOUS
 62
    40
 10
348598.9373361303
 20
-25536.40974212073
 30
0.0
 11
348644.4098132221
 21
-24672.44612316382
 31
0.0
  0
LINE
  5
103
  8
F2_02STRUCTURE
  6
CONTINUOUS
 62
    40
 10
348962.7171528649
 20
-24990.74850909531
 30
0.0
 11
351327.2859616401
 21
-24990.74850909531
 31
0.0
  0
LINE
  5
104
  8
F2_02STRUCTURE
  6
CONTINUOUS
 62
    40
 10
348644.4098132221
 20
-24672.44612316382
 30
0.0
 11
351008.9786219973
 21
-24672.44612316382
 31
0.0
  0
LINE
  5
105
  8
F2_02STRUCTURE
  6
CONTINUOUS
 62
    40
 10
295214.2492303205
 20
-12122.23776357924
 30
0.0
 11
295214.2492303205
 21
-7666.004360538347
 31
0.0
  0
LINE
  5
106
  8
F2_02STRUCTURE
  6
CONTINUOUS
 62
    40
 10
295532.5565699633
 20
-11894.87891648532
 30
0.0
 11
295532.5565699633
 21
-7666.004360538347
 31
0.0
  0
LINE
  5
107
  8
F2_02STRUCTURE
  6
CONTINUOUS
 62
    40
 10
296487.4785888918
 20
35031.98712370047
 30
0.0
 11
311902.6483230225
 21
35031.98712370047
 31
0.0
  0
LINE
  5
108
  8
F2_02STRUCTURE
  6
CONTINUOUS
 62
    40
 10
259836.6620528759
 20
17161.58174211809
 30
0.0
 11
259472.8822361412
 21
17161.58174211809
 31
0.0
  0
LINE
  5
109
  8
F2_02STRUCTURE
  6
CONTINUOUS
 62
    40
 10
256790.0060877232
 20
17707.2429751435
 30
0.0
 11
257062.8409502742
 21
17707.2429751435
 31
0.0
  0
LINE
  5
10A
  8
F2_02STRUCTURE
  6
CONTINUOUS
 62
    40
 10
240738.2216743068
 20
34531.79766009384
 30
0.0
 11
240738.2216743068
 21
34168.02350474356
 31
0.0
  0
LINE
  5
10B
  8
F2_02STRUCTURE
  6
CONTINUOUS
 62
    40
 10
240738.2216743068
 20
38305.95452185297
 30
0.0
 11
240738.2216743068
 21
38760.67221604081
 31
0.0
  0
LINE
  5
10C
  8
F2_02STRUCTURE
  6
CONTINUOUS
 62
    40
 10
269658.7171047114
 20
12568.93303082084
 30
0.0
 11
269476.8271963441
 21
12705.34833907719
 31
0.0
  0
LINE
  5
10D
  8
F2_02STRUCTURE
  6
CONTINUOUS
 62
    40
 10
272341.5932531295
 20
9840.626865693754
 30
0.0
 11
266793.951047926
 21
15388.18273478549
 31
0.0
  0
POLYLINE
  5
10E
  8
F2_02STRUCTURE
  6
CONTINUOUS
 62
    40
 66
     1
 10
0.0
 20
0.0
 30
0.0
  0
VERTEX
  5
250
  8
F2_02STRUCTURE
  6
CONTINUOUS
 62
    40
 10
295805.3914325143
 20
8158.171397198726
 30
0.0
  0
VERTEX
  5
251
  8
F2_02STRUCTURE
  6
CONTINUOUS
 62
    40
 10
295987.2813408817
 20
7885.340780686012
 30
0.0
  0
VERTEX
  5
252
  8
F2_02STRUCTURE
  6
CONTINUOUS
 62
    40
 10
297442.4006078203
 20
8931.191477318062
 30
0.0
  0
VERTEX
  5
253
  8
F2_02STRUCTURE
  6
CONTINUOUS
 62
    40
 10
297305.9831765448
 20
9158.550324411983
 30
0.0
  0
SEQEND
  5
332
  8
F2_02STRUCTURE
  6
CONTINUOUS
 62
    40
  0
LINE
  5
10F
  8
F2_02STRUCTURE
  6
CONTINUOUS
 62
    40
 10
295350.666661596
 20
7430.62308649817
 30
0.0
 11
298397.3226267487
 21
9567.796249181047
 31
0.0
  0
LINE
  5
110
  8
F2_02STRUCTURE
  6
CONTINUOUS
 62
    40
 10
294986.8868448614
 20
7567.03839475452
 30
0.0
 11
298079.0152871059
 21
9749.68332685619
 31
0.0
  0
LINE
  5
111
  8
F2_02STRUCTURE
  6
CONTINUOUS
 62
    40
 10
298397.3226267487
 20
9567.796249181047
 30
0.0
 11
298397.3226267487
 21
11295.72348709487
 31
0.0
  0
LINE
  5
112
  8
F2_02STRUCTURE
  6
CONTINUOUS
 62
    40
 10
298079.0152871059
 20
9749.68332685619
 30
0.0
 11
298079.0152871059
 21
11295.72348709487
 31
0.0
  0
LINE
  5
113
  8
F2_02STRUCTURE
  6
CONTINUOUS
 62
    40
 10
298397.3226267487
 20
11295.72348709487
 30
0.0
 11
298397.3226267487
 21
17070.63820328052
 31
0.0
  0
LINE
  5
114
  8
F2_02STRUCTURE
  6
CONTINUOUS
 62
    40
 10
298079.0152871059
 20
11295.72348709487
 30
0.0
 11
298079.0152871059
 21
16752.33581734903
 31
0.0
  0
POLYLINE
  5
115
  8
F2_02STRUCTURE
  6
CONTINUOUS
 62
    40
 66
     1
 10
0.0
 20
0.0
 30
0.0
  0
VERTEX
  5
254
  8
F2_02STRUCTURE
  6
CONTINUOUS
 62
    40
 10
248059.2904860916
 20
17707.2429751435
 30
0.0
  0
VERTEX
  5
255
  8
F2_02STRUCTURE
  6
CONTINUOUS
 62
    40
 10
248332.1253486426
 20
17707.2429751435
 30
0.0
  0
VERTEX
  5
256
  8
F2_02STRUCTURE
  6
CONTINUOUS
 62
    40
 10
248332.1253486426
 20
22299.89168644076
 30
0.0
  0
VERTEX
  5
257
  8
F2_02STRUCTURE
  6
CONTINUOUS
 62
    40
 10
248059.2904860916
 20
22299.89168644076
 30
0.0
  0
VERTEX
  5
258
  8
F2_02STRUCTURE
  6
CONTINUOUS
 62
    40
 10
248059.2904860916
 20
17707.2429751435
 30
0.0
  0
SEQEND
  5
333
  8
F2_02STRUCTURE
  6
CONTINUOUS
 62
    40
  0
POLYLINE
  5
116
  8
F2_02STRUCTURE
  6
CONTINUOUS
 62
    40
 66
     1
 10
0.0
 20
0.0
 30
0.0
  0
VERTEX
  5
259
  8
F2_02STRUCTURE
  6
CONTINUOUS
 62
    40
 10
240738.2216743068
 20
34168.02350474356
 30
0.0
  0
VERTEX
  5
25A
  8
F2_02STRUCTURE
  6
CONTINUOUS
 62
    40
 10
240738.2216743068
 20
34531.79766009384
 30
0.0
  0
VERTEX
  5
25B
  8
F2_02STRUCTURE
  6
CONTINUOUS
 62
    40
 10
241056.5290139496
 20
34531.79766009384
 30
0.0
  0
VERTEX
  5
25C
  8
F2_02STRUCTURE
  6
CONTINUOUS
 62
    40
 10
241056.5290139496
 20
34168.02350474356
 30
0.0
  0
VERTEX
  5
25D
  8
F2_02STRUCTURE
  6
CONTINUOUS
 62
    40
 10
240738.2216743068
 20
34168.02350474356
 30
0.0
  0
VERTEX
  5
25E
  8
F2_02STRUCTURE
  6
CONTINUOUS
 62
    40
 10
241056.5290139496
 20
34168.02350474356
 30
0.0
  0
VERTEX
  5
25F
  8
F2_02STRUCTURE
  6
CONTINUOUS
 62
    40
 10
241056.5290139496
 20
39033.50283255352
 30
0.0
  0
VERTEX
  5
260
  8
F2_02STRUCTURE
  6
CONTINUOUS
 62
    40
 10
240738.2216743068
 20
39033.50283255352
 30
0.0
  0
VERTEX
  5
261
  8
F2_02STRUCTURE
  6
CONTINUOUS
 62
    40
 10
240738.2216743068
 20
34168.02350474356
 30
0.0
  0
SEQEND
  5
334
  8
F2_02STRUCTURE
  6
CONTINUOUS
 62
    40
  0
POLYLINE
  5
117
  8
F2_02STRUCTURE
  6
CONTINUOUS
 62
    40
 66
     1
 10
0.0
 20
0.0
 30
0.0
  0
VERTEX
  5
262
  8
F2_02STRUCTURE
  6
CONTINUOUS
 62
    40
 10
240738.2216743068
 20
38305.95452185297
 30
0.0
  0
VERTEX
  5
263
  8
F2_02STRUCTURE
  6
CONTINUOUS
 62
    40
 10
241056.5290139496
 20
38305.95452185297
 30
0.0
  0
VERTEX
  5
264
  8
F2_02STRUCTURE
  6
CONTINUOUS
 62
    40
 10
241056.5290139496
 20
39033.50283255352
 30
0.0
  0
VERTEX
  5
265
  8
F2_02STRUCTURE
  6
CONTINUOUS
 62
    40
 10
240738.2216743068
 20
39033.50283255352
 30
0.0
  0
VERTEX
  5
266
  8
F2_02STRUCTURE
  6
CONTINUOUS
 62
    40
 10
240738.2216743068
 20
38305.95452185297
 30
0.0
  0
SEQEND
  5
335
  8
F2_02STRUCTURE
  6
CONTINUOUS
 62
    40
  0
POLYLINE
  5
118
  8
F2_02STRUCTURE
  6
CONTINUOUS
 62
    40
 66
     1
 10
0.0
 20
0.0
 30
0.0
  0
VERTEX
  5
267
  8
F2_02STRUCTURE
  6
CONTINUOUS
 62
    40
 10
247422.675806806
 20
74365.06767094923
 30
0.0
  0
VERTEX
  5
268
  8
F2_02STRUCTURE
  6
CONTINUOUS
 62
    40
 10
247695.510669357
 20
74365.06767094923
 30
0.0
  0
VERTEX
  5
269
  8
F2_02STRUCTURE
  6
CONTINUOUS
 62
    40
 10
247695.510669357
 20
67862.60464406302
 30
0.0
  0
VERTEX
  5
26A
  8
F2_02STRUCTURE
  6
CONTINUOUS
 62
    40
 10
247422.675806806
 20
67862.60464406302
 30
0.0
  0
VERTEX
  5
26B
  8
F2_02STRUCTURE
  6
CONTINUOUS
 62
    40
 10
247422.675806806
 20
74365.06767094923
 30
0.0
  0
SEQEND
  5
336
  8
F2_02STRUCTURE
  6
CONTINUOUS
 62
    40
  0
POLYLINE
  5
119
  8
F2_02STRUCTURE
  6
CONTINUOUS
 62
    40
 66
     1
 10
0.0
 20
0.0
 30
0.0
  0
VERTEX
  5
26C
  8
F2_02STRUCTURE
  6
CONTINUOUS
 62
    40
 10
247422.675806806
 20
73773.93466850503
 30
0.0
  0
VERTEX
  5
26D
  8
F2_02STRUCTURE
  6
CONTINUOUS
 62
    40
 10
247695.510669357
 20
73773.93466850503
 30
0.0
  0
VERTEX
  5
26E
  8
F2_02STRUCTURE
  6
CONTINUOUS
 62
    40
 10
247695.510669357
 20
74365.06767094923
 30
0.0
  0
VERTEX
  5
26F
  8
F2_02STRUCTURE
  6
CONTINUOUS
 62
    40
 10
247422.675806806
 20
74365.06767094923
 30
0.0
  0
VERTEX
  5
270
  8
F2_02STRUCTURE
  6
CONTINUOUS
 62
    40
 10
247422.675806806
 20
73773.93466850503
 30
0.0
  0
SEQEND
  5
337
  8
F2_02STRUCTURE
  6
CONTINUOUS
 62
    40
  0
POLYLINE
  5
11A
  8
F2_02STRUCTURE
  6
CONTINUOUS
 62
    40
 66
     1
 10
0.0
 20
0.0
 30
0.0
  0
VERTEX
  5
271
  8
F2_02STRUCTURE
  6
CONTINUOUS
 62
    40
 10
253925.2400309378
 20
67771.66110522544
 30
0.0
  0
VERTEX
  5
272
  8
F2_02STRUCTURE
  6
CONTINUOUS
 62
    40
 10
253925.2400309378
 20
68772.0400324387
 30
0.0
  0
VERTEX
  5
273
  8
F2_02STRUCTURE
  6
CONTINUOUS
 62
    40
 10
257244.7308586415
 20
68772.0400324387
 30
0.0
  0
SEQEND
  5
338
  8
F2_02STRUCTURE
  6
CONTINUOUS
 62
    40
  0
LINE
  5
11B
  8
F2_02STRUCTURE
  6
CONTINUOUS
 62
    40
 10
290030.3868418518
 20
83914.139248894
 30
0.0
 11
290621.5290440456
 21
85687.5382562266
 31
0.0
  0
LINE
  5
11C
  8
F2_02STRUCTURE
  6
CONTINUOUS
 62
    40
 10
290257.7492273109
 20
83686.78040180008
 30
0.0
 11
290939.8363836884
 21
85642.06648680782
 31
0.0
  0
LINE
  5
11D
  8
F2_02STRUCTURE
  6
CONTINUOUS
 62
    40
 10
290621.5290440456
 20
85687.5382562266
 30
0.0
 11
290621.5290440456
 21
88415.84442135369
 31
0.0
  0
LINE
  5
11E
  8
F2_02STRUCTURE
  6
CONTINUOUS
 62
    40
 10
290939.8363836884
 20
85642.06648680782
 30
0.0
 11
290939.8363836884
 21
88415.84442135369
 31
0.0
  0
LINE
  5
11F
  8
F2_02STRUCTURE
  6
CONTINUOUS
 62
    40
 10
275797.5015121086
 20
83914.139248894
 30
0.0
 11
275206.3593099148
 21
85687.5382562266
 31
0.0
  0
LINE
  5
120
  8
F2_02STRUCTURE
  6
CONTINUOUS
 62
    40
 10
275570.1391266495
 20
83686.78040180008
 30
0.0
 11
274933.5244473639
 21
85642.06648680782
 31
0.0
  0
LINE
  5
121
  8
F2_02STRUCTURE
  6
CONTINUOUS
 62
    40
 10
275206.3593099148
 20
85687.5382562266
 30
0.0
 11
275206.3593099148
 21
88415.84442135369
 31
0.0
  0
LINE
  5
122
  8
F2_02STRUCTURE
  6
CONTINUOUS
 62
    40
 10
274933.5244473639
 20
85642.06648680782
 30
0.0
 11
274933.5244473639
 21
88415.84442135369
 31
0.0
  0
LINE
  5
123
  8
F2_02STRUCTURE
  6
CONTINUOUS
 62
    40
 10
289984.9143647599
 20
83777.72394063765
 30
0.0
 11
290257.7492273109
 21
83686.78040180008
 31
0.0
  0
LINE
  5
124
  8
F2_02STRUCTURE
  6
CONTINUOUS
 62
    40
 10
275570.1391266495
 20
83686.78040180008
 30
0.0
 11
275842.9739892004
 21
83777.72394063765
 31
0.0
  0
POLYLINE
  5
125
  8
F2_02STRUCTURE
  6
CONTINUOUS
 62
    40
 66
     1
 10
0.0
 20
0.0
 30
0.0
  0
VERTEX
  5
274
  8
F2_02STRUCTURE
  6
CONTINUOUS
 62
    40
 10
278616.7950918021
 20
655.3294430992537
 30
0.0
  0
VERTEX
  5
275
  8
F2_02STRUCTURE
  6
CONTINUOUS
 62
    40
 10
274842.5794931802
 20
655.3294430992537
 30
0.0
  0
VERTEX
  5
276
  8
F2_02STRUCTURE
  6
CONTINUOUS
 62
    40
 10
274842.5794931802
 20
337.0270571677611
 30
0.0
  0
VERTEX
  5
277
  8
F2_02STRUCTURE
  6
CONTINUOUS
 62
    40
 10
278616.7950918021
 20
337.0270571677611
 30
0.0
  0
VERTEX
  5
278
  8
F2_02STRUCTURE
  6
CONTINUOUS
 62
    40
 10
278616.7950918021
 20
655.3294430992537
 30
0.0
  0
SEQEND
  5
339
  8
F2_02STRUCTURE
  6
CONTINUOUS
 62
    40
  0
LINE
  5
126
  8
F2_02STRUCTURE
  6
CONTINUOUS
 62
    40
 10
253606.932691295
 20
67862.60464406302
 30
0.0
 11
253606.932691295
 21
69044.87064895142
 31
0.0
  0
LINE
  5
127
  8
F2_02STRUCTURE
  6
CONTINUOUS
 62
    40
 10
257244.7308586415
 20
68772.0400324387
 30
0.0
 11
257244.7308586415
 21
69044.87064895142
 31
0.0
  0
LINE
  5
128
  8
F2_02STRUCTURE
  6
CONTINUOUS
 62
    40
 10
279480.7721565469
 20
-7666.004360538347
 30
0.0
 11
279162.4648169041
 21
-7666.004360538347
 31
0.0
  0
LINE
  5
129
  8
F2_02STRUCTURE
  6
CONTINUOUS
 62
    40
 10
295214.2492303205
 20
-7666.004360538347
 30
0.0
 11
295532.5565699633
 21
-7666.004360538347
 31
0.0
  0
LINE
  5
12A
  8
F2_02STRUCTURE
  6
CONTINUOUS
 62
    40
 10
215500.9968883406
 20
4656.845151952301
 30
0.0
 11
215819.3042279833
 21
4656.845151952301
 31
0.0
  0
LINE
  5
12B
  8
F2_02STRUCTURE
  6
CONTINUOUS
 62
    40
 10
209680.5198205861
 20
4656.845151952301
 30
0.0
 11
209998.827160229
 21
4656.845151952301
 31
0.0
  0
LINE
  5
12C
  8
F2_02STRUCTURE
  6
CONTINUOUS
 62
    40
 10
215819.3042279833
 20
94645.47683172718
 30
0.0
 11
322634.1529166947
 21
94645.47683172718
 31
0.0
  0
LINE
  5
12D
  8
F2_02STRUCTURE
  6
CONTINUOUS
 62
    40
 10
345916.0611877122
 20
94645.47683172718
 30
0.0
 11
351008.9786219973
 21
94645.47683172718
 31
0.0
  0
POLYLINE
  5
12E
  8
F2_02STRUCTURE
  6
CONTINUOUS
 62
    40
 66
     1
 10
0.0
 20
0.0
 30
0.0
  0
VERTEX
  5
279
  8
F2_02STRUCTURE
  6
CONTINUOUS
 62
    40
 10
294986.8868448614
 20
26255.93562587503
 30
0.0
  0
VERTEX
  5
27A
  8
F2_02STRUCTURE
  6
CONTINUOUS
 62
    40
 10
296805.7859285346
 20
26255.93562587503
 30
0.0
  0
VERTEX
  5
27B
  8
F2_02STRUCTURE
  6
CONTINUOUS
 62
    40
 10
296805.7859285346
 20
34713.68473776897
 30
0.0
  0
VERTEX
  5
27C
  8
F2_02STRUCTURE
  6
CONTINUOUS
 62
    40
 10
304445.1620799623
 20
34713.68473776897
 30
0.0
  0
SEQEND
  5
33A
  8
F2_02STRUCTURE
  6
CONTINUOUS
 62
    40
  0
LINE
  5
12F
  8
F2_02STRUCTURE
  6
CONTINUOUS
 62
    40
 10
290030.3868418518
 20
83914.139248894
 30
0.0
 11
289984.9143647599
 21
83777.72394063765
 31
0.0
  0
LINE
  5
130
  8
F2_02STRUCTURE
  6
CONTINUOUS
 62
    40
 10
275797.5015121086
 20
83914.139248894
 30
0.0
 11
275842.9739892004
 21
83777.72394063765
 31
0.0
  0
POLYLINE
  5
131
  8
F2_02STRUCTURE
  6
CONTINUOUS
 62
    40
 66
     1
 10
0.0
 20
0.0
 30
0.0
  0
VERTEX
  5
27D
  8
F2_02STRUCTURE
  6
CONTINUOUS
 62
    40
 10
247786.4556235407
 20
29893.6771793778
 30
0.0
  0
VERTEX
  5
27E
  8
F2_02STRUCTURE
  6
CONTINUOUS
 62
    40
 10
247786.4556235407
 20
34077.07996590598
 30
0.0
  0
VERTEX
  5
27F
  8
F2_02STRUCTURE
  6
CONTINUOUS
 62
    40
 10
247877.4005777243
 20
34077.07996590598
 30
0.0
  0
VERTEX
  5
280
  8
F2_02STRUCTURE
  6
CONTINUOUS
 62
    40
 10
247877.4005777243
 20
29893.6771793778
 30
0.0
  0
SEQEND
  5
33B
  8
F2_02STRUCTURE
  6
CONTINUOUS
 62
    40
  0
LINE
  5
132
  8
F2_02STRUCTURE
  6
CONTINUOUS
 62
    40
 10
296760.3134514428
 20
655.3294430992537
 30
0.0
 11
274842.5794931802
 21
655.3294430992537
 31
0.0
  0
LINE
  5
133
  8
F2_02STRUCTURE
  6
CONTINUOUS
 62
    40
 10
272523.4831614968
 20
10067.98571278768
 30
0.0
 11
267066.785910477
 21
15570.06981246063
 31
0.0
  0
LINE
  5
134
  8
F2_02STRUCTURE
  6
CONTINUOUS
 62
    40
 10
248059.2904860916
 20
19753.47259898882
 30
0.0
 11
248332.1253486426
 21
19753.47259898882
 31
0.0
  0
LINE
  5
135
  8
F2_02STRUCTURE
  6
CONTINUOUS
 62
    40
 10
248059.2904860916
 20
21754.23045341534
 30
0.0
 11
248332.1253486426
 21
21754.23045341534
 31
0.0
  0
LINE
  5
136
  8
F2_02STRUCTURE
  6
CONTINUOUS
 62
    40
 10
248059.2904860916
 20
17980.07359165621
 30
0.0
 11
248332.1253486426
 21
17980.07359165621
 31
0.0
  0
LINE
  5
137
  8
F2_02STRUCTURE
  6
CONTINUOUS
 62
    40
 10
240738.2216743068
 20
39033.50283255352
 30
0.0
 11
241056.5290139496
 21
39033.50283255352
 31
0.0
  0
LINE
  5
138
  8
F2_02STRUCTURE
  6
CONTINUOUS
 62
    40
 10
248332.1253486426
 20
19980.83144608274
 30
0.0
 11
248059.2904860916
 21
19980.83144608274
 31
0.0
  0
LINE
  5
139
  8
F2_02STRUCTURE
  6
CONTINUOUS
 62
    40
 10
344688.3043062328
 20
-31856.9856913318
 30
0.0
 11
342823.9327454678
 21
-32584.53400203235
 31
0.0
  0
LINE
  5
13A
  8
F2_02STRUCTURE
  6
CONTINUOUS
 62
    40
 10
344551.8868749573
 20
-31584.15507481909
 30
0.0
 11
342732.987791284
 21
-32311.70338551964
 31
0.0
  0
LINE
  5
13B
  8
F2_02STRUCTURE
  6
CONTINUOUS
 62
    40
 10
342823.9327454678
 20
-32584.53400203235
 30
0.0
 11
340368.4189825088
 21
-32948.30815738263
 31
0.0
  0
LINE
  5
13C
  8
F2_02STRUCTURE
  6
CONTINUOUS
 62
    40
 10
342732.987791284
 20
-32311.70338551964
 30
0.0
 11
340368.4189825088
 21
-32630.00577145113
 31
0.0
  0
LINE
  5
13D
  8
F2_02STRUCTURE
  6
CONTINUOUS
 62
    40
 10
340368.4189825088
 20
-32948.30815738263
 30
0.0
 11
337412.7079715398
 21
-32675.47754086992
 31
0.0
  0
LINE
  5
13E
  8
F2_02STRUCTURE
  6
CONTINUOUS
 62
    40
 10
340368.4189825088
 20
-32630.00577145113
 30
0.0
 11
337458.1804486316
 21
-32402.64692435721
 31
0.0
  0
LINE
  5
13F
  8
F2_02STRUCTURE
  6
CONTINUOUS
 62
    40
 10
337412.7079715398
 20
-32675.47754086992
 30
0.0
 11
334547.9419147545
 21
-31947.92923016937
 31
0.0
  0
LINE
  5
140
  8
F2_02STRUCTURE
  6
CONTINUOUS
 62
    40
 10
337458.1804486316
 20
-32402.64692435721
 30
0.0
 11
334638.8868689381
 21
-31675.09861365666
 31
0.0
  0
LINE
  5
141
  8
F2_02STRUCTURE
  6
CONTINUOUS
 62
    40
 10
334547.9419147545
 20
-31947.92923016937
 30
0.0
 11
331592.2309037854
 21
-30720.19145586218
 31
0.0
  0
LINE
  5
142
  8
F2_02STRUCTURE
  6
CONTINUOUS
 62
    40
 10
334638.8868689381
 20
-31675.09861365666
 30
0.0
 11
331728.6483350609
 21
-30447.36083934947
 31
0.0
  0
LINE
  5
143
  8
F2_02STRUCTURE
  6
CONTINUOUS
 62
    40
 10
331592.2309037854
 20
-30720.19145586218
 30
0.0
 11
329364.0795262857
 21
-29401.51014271742
 31
0.0
  0
LINE
  5
144
  8
F2_02STRUCTURE
  6
CONTINUOUS
 62
    40
 10
331728.6483350609
 20
-30447.36083934947
 30
0.0
 11
329545.9694346531
 21
-29174.1512956235
 31
0.0
  0
LINE
  5
145
  8
F2_02STRUCTURE
  6
CONTINUOUS
 62
    40
 10
344688.3043062328
 20
-31856.9856913318
 30
0.0
 11
346416.2584357224
 21
-30583.77614760583
 31
0.0
  0
LINE
  5
146
  8
F2_02STRUCTURE
  6
CONTINUOUS
 62
    40
 10
344551.8868749573
 20
-31584.15507481909
 30
0.0
 11
346234.3685273551
 21
-30356.4173005119
 31
0.0
  0
LINE
  5
147
  8
F2_02STRUCTURE
  6
CONTINUOUS
 62
    40
 10
346416.2584357224
 20
-30583.77614760583
 30
0.0
 11
347553.0703630181
 21
-29265.09483446107
 31
0.0
  0
LINE
  5
148
  8
F2_02STRUCTURE
  6
CONTINUOUS
 62
    40
 10
346234.3685273551
 20
-30356.4173005119
 30
0.0
 11
347325.707977559
 21
-29083.20775678593
 31
0.0
  0
LINE
  5
149
  8
F2_02STRUCTURE
  6
CONTINUOUS
 62
    40
 10
348917.2446757731
 20
-25581.88151153951
 30
0.0
 11
348326.1024735793
 21
-27809.99821305996
 31
0.0
  0
LINE
  5
14A
  8
F2_02STRUCTURE
  6
CONTINUOUS
 62
    40
 10
348598.9373361303
 20
-25536.40974212073
 30
0.0
 11
348053.2676110283
 21
-27719.05467422239
 31
0.0
  0
LINE
  5
14B
  8
F2_02STRUCTURE
  6
CONTINUOUS
 62
    40
 10
348326.1024735793
 20
-27809.99821305996
 30
0.0
 11
347553.0703630181
 21
-29265.09483446107
 31
0.0
  0
LINE
  5
14C
  8
F2_02STRUCTURE
  6
CONTINUOUS
 62
    40
 10
348053.2676110283
 20
-27719.05467422239
 30
0.0
 11
347325.707977559
 21
-29083.20775678593
 31
0.0
  0
POLYLINE
  5
14D
  8
F2_02STRUCTURE
  6
CONTINUOUS
 62
    40
 66
     1
 10
0.0
 20
0.0
 30
0.0
  0
VERTEX
  5
281
  8
F2_02STRUCTURE
  6
CONTINUOUS
 62
    40
 10
302489.8455650135
 20
44899.36108757675
 30
0.0
  0
VERTEX
  5
282
  8
F2_02STRUCTURE
  6
CONTINUOUS
 62
    40
 10
302853.6253817481
 20
44899.36108757675
 30
0.0
  0
VERTEX
  5
283
  8
F2_02STRUCTURE
  6
CONTINUOUS
 62
    40
 10
301580.3960231769
 20
43216.90561908171
 30
0.0
  0
VERTEX
  5
284
  8
F2_02STRUCTURE
  6
CONTINUOUS
 62
    40
 10
301580.3960231769
 20
39897.46645151044
 30
0.0
  0
VERTEX
  5
285
  8
F2_02STRUCTURE
  6
CONTINUOUS
 62
    40
 10
297033.1483139938
 20
39897.46645151044
 30
0.0
  0
VERTEX
  5
286
  8
F2_02STRUCTURE
  6
CONTINUOUS
 62
    40
 10
297033.1483139938
 20
40170.29706802314
 30
0.0
  0
VERTEX
  5
287
  8
F2_02STRUCTURE
  6
CONTINUOUS
 62
    40
 10
301262.0886835341
 20
40170.29706802314
 30
0.0
  0
VERTEX
  5
288
  8
F2_02STRUCTURE
  6
CONTINUOUS
 62
    40
 10
301262.0886835341
 20
43307.84915791928
 30
0.0
  0
VERTEX
  5
289
  8
F2_02STRUCTURE
  6
CONTINUOUS
 62
    40
 10
302489.8455650135
 20
44899.36108757675
 30
0.0
  0
SEQEND
  5
33C
  8
F2_02STRUCTURE
  6
CONTINUOUS
 62
    40
  0
POLYLINE
  5
14E
  8
F2_05MULTIPURPOSE
  6
CONTINUOUS
 62
   195
 66
     1
 10
0.0
 20
0.0
 30
0.0
  0
VERTEX
  5
28A
  8
F2_05MULTIPURPOSE
  6
CONTINUOUS
 62
   195
 10
259154.5748964984
 20
11568.55410360757
 30
0.0
  0
VERTEX
  5
28B
  8
F2_05MULTIPURPOSE
  6
CONTINUOUS
 62
   195
 10
257062.8409502742
 20
11568.55410360757
 30
0.0
  0
VERTEX
  5
28C
  8
F2_05MULTIPURPOSE
  6
CONTINUOUS
 62
   195
 10
257062.8409502742
 20
17434.4123586308
 30
0.0
  0
VERTEX
  5
28D
  8
F2_05MULTIPURPOSE
  6
CONTINUOUS
 62
   195
 10
259154.5748964984
 20
17434.4123586308
 30
0.0
  0
VERTEX
  5
28E
  8
F2_05MULTIPURPOSE
  6
CONTINUOUS
 62
   195
 10
259154.5748964984
 20
11568.55410360757
 30
0.0
  0
SEQEND
  5
33D
  8
F2_05MULTIPURPOSE
  6
CONTINUOUS
 62
   195
  0
LINE
  5
14F
  8
F2_02STRUCTURE
  6
CONTINUOUS
 62
    40
 10
302808.1529046563
 20
67316.94341103759
 30
0.0
 11
302808.1529046563
 21
63997.50424346632
 31
0.0
  0
LINE
  5
150
  8
F2_02STRUCTURE
  6
CONTINUOUS
 62
    40
 10
302717.2079504727
 20
67180.52810278125
 30
0.0
 11
302717.2079504727
 21
64088.44778230388
 31
0.0
  0
POLYLINE
  5
151
  8
F2_02STRUCTURE
  6
CONTINUOUS
 62
    40
 66
     1
 10
0.0
 20
0.0
 30
0.0
  0
VERTEX
  5
28F
  8
F2_02STRUCTURE
  6
CONTINUOUS
 62
    40
 10
345916.0611877122
 20
94645.47683172718
 30
0.0
  0
VERTEX
  5
290
  8
F2_02STRUCTURE
  6
CONTINUOUS
 62
    40
 10
345916.0611877122
 20
103421.5283295526
 30
0.0
  0
VERTEX
  5
291
  8
F2_02STRUCTURE
  6
CONTINUOUS
 62
    40
 10
322634.1529166947
 20
103421.5283295526
 30
0.0
  0
VERTEX
  5
292
  8
F2_02STRUCTURE
  6
CONTINUOUS
 62
    40
 10
322634.1529166947
 20
94645.47683172718
 30
0.0
  0
SEQEND
  5
33E
  8
F2_02STRUCTURE
  6
CONTINUOUS
 62
    40
  0
POLYLINE
  5
152
  8
F2_02STRUCTURE
  6
CONTINUOUS
 62
    40
 66
     1
 10
0.0
 20
0.0
 30
0.0
  0
VERTEX
  5
293
  8
F2_02STRUCTURE
  6
CONTINUOUS
 62
    40
 10
346234.3685273551
 20
94918.3074482399
 30
0.0
  0
VERTEX
  5
294
  8
F2_02STRUCTURE
  6
CONTINUOUS
 62
    40
 10
346234.3685273551
 20
103739.8307154841
 30
0.0
  0
VERTEX
  5
295
  8
F2_02STRUCTURE
  6
CONTINUOUS
 62
    40
 10
322315.8455770519
 20
103739.8307154841
 30
0.0
  0
VERTEX
  5
296
  8
F2_02STRUCTURE
  6
CONTINUOUS
 62
    40
 10
322315.8455770519
 20
94918.3074482399
 30
0.0
  0
SEQEND
  5
33F
  8
F2_02STRUCTURE
  6
CONTINUOUS
 62
    40
  0
LINE
  5
153
  8
F2_05MULTIPURPOSE
  6
CONTINUOUS
 62
   195
 10
351008.9786219973
 20
23118.38353597889
 30
0.0
 11
351008.9786219973
 21
94645.47683172718
 31
0.0
  0
LINE
  5
154
  8
F2_02STRUCTURE
  6
CONTINUOUS
 62
    40
 10
351008.9786219973
 20
33531.41873288057
 30
0.0
 11
351008.9786219973
 21
28893.29825216454
 31
0.0
  0
LINE
  5
155
  8
F2_02STRUCTURE
  6
CONTINUOUS
 62
    40
 10
266248.2813228241
 20
-23763.01073478812
 30
0.0
 11
268158.125360681
 21
-18533.75725162789
 31
0.0
  0
LINE
  5
156
  8
F2_02STRUCTURE
  6
CONTINUOUS
 62
    40
 10
265929.9739831813
 20
-23717.53896536934
 30
0.0
 11
267930.7629752218
 21
-18397.34194337153
 31
0.0
  0
LINE
  5
157
  8
F2_02STRUCTURE
  6
CONTINUOUS
 62
    40
 10
268158.125360681
 20
-18533.75725162789
 30
0.0
 11
271159.3088487419
 21
-15396.20516173174
 31
0.0
  0
LINE
  5
158
  8
F2_02STRUCTURE
  6
CONTINUOUS
 62
    40
 10
267930.7629752218
 20
-18397.34194337153
 30
0.0
 11
270977.4189403745
 21
-15168.84631463782
 31
0.0
  0
LINE
  5
159
  8
F2_02STRUCTURE
  6
CONTINUOUS
 62
    40
 10
271159.3088487419
 20
-15396.20516173174
 30
0.0
 11
275388.2492182822
 21
-13168.08846021129
 31
0.0
  0
LINE
  5
15A
  8
F2_02STRUCTURE
  6
CONTINUOUS
 62
    40
 10
270977.4189403745
 20
-15168.84631463782
 30
0.0
 11
274569.7446306292
 21
-13259.03199904886
 31
0.0
  0
LINE
  5
15B
  8
F2_02STRUCTURE
  6
CONTINUOUS
 62
    40
 10
274842.5794931802
 20
-13077.14492137372
 30
0.0
 11
275251.8317870066
 21
-12895.25784369859
 31
0.0
  0
LINE
  5
15C
  8
F2_02STRUCTURE
  6
CONTINUOUS
 62
    40
 10
275388.2492182822
 20
-13168.08846021129
 30
0.0
 11
279480.7721565469
 21
-12122.23776357924
 31
0.0
  0
LINE
  5
15D
  8
F2_02STRUCTURE
  6
CONTINUOUS
 62
    40
 10
275251.8317870066
 20
-12895.25784369859
 30
0.0
 11
279162.4648169041
 21
-11894.87891648532
 31
0.0
  0
LINE
  5
15E
  8
F2_02STRUCTURE
  6
CONTINUOUS
 62
    40
 10
271932.340959303
 20
-28082.82882957267
 30
0.0
 11
271932.340959303
 21
-23763.01073478812
 31
0.0
  0
LINE
  5
15F
  8
F2_02STRUCTURE
  6
CONTINUOUS
 62
    40
 10
272250.6482989458
 20
-28082.82882957267
 30
0.0
 11
272250.6482989458
 21
-23808.48250420691
 31
0.0
  0
LINE
  5
160
  8
F2_02STRUCTURE
  6
CONTINUOUS
 62
    40
 10
271932.340959303
 20
-23763.01073478812
 30
0.0
 11
272341.5932531295
 21
-22489.80119106215
 31
0.0
  0
LINE
  5
161
  8
F2_02STRUCTURE
  6
CONTINUOUS
 62
    40
 10
272250.6482989458
 20
-23808.48250420691
 30
0.0
 11
272614.4281156805
 21
-22671.68826873729
 31
0.0
  0
LINE
  5
162
  8
F2_02STRUCTURE
  6
CONTINUOUS
 62
    40
 10
272341.5932531295
 20
-22489.80119106215
 30
0.0
 11
275342.7767411903
 21
-19352.24910116601
 31
0.0
  0
LINE
  5
163
  8
F2_02STRUCTURE
  6
CONTINUOUS
 62
    40
 10
272614.4281156805
 20
-22671.68826873729
 30
0.0
 11
275524.6666495577
 21
-19579.60794825993
 31
0.0
  0
LINE
  5
164
  8
F2_02STRUCTURE
  6
CONTINUOUS
 62
    40
 10
275342.7767411903
 20
-19352.24910116601
 30
0.0
 11
276706.9510539452
 21
-18624.70079046545
 31
0.0
  0
LINE
  5
165
  8
F2_02STRUCTURE
  6
CONTINUOUS
 62
    40
 10
275524.6666495577
 20
-19579.60794825993
 30
0.0
 11
276843.3684852208
 21
-18897.53140697816
 31
0.0
  0
LINE
  5
166
  8
F2_02STRUCTURE
  6
CONTINUOUS
 62
    40
 10
276706.9510539452
 20
-18624.70079046545
 30
0.0
 11
280799.4739922101
 21
-17578.85009383341
 31
0.0
  0
LINE
  5
167
  8
F2_02STRUCTURE
  6
CONTINUOUS
 62
    40
 10
276843.3684852208
 20
-18897.53140697816
 30
0.0
 11
280844.9464693019
 21
-17897.1524797649
 31
0.0
  0
LINE
  5
168
  8
F2_02STRUCTURE
  6
CONTINUOUS
 62
    40
 10
280799.4739922101
 20
-17578.85009383341
 30
0.0
 11
287347.5106934338
 21
-17578.85009383341
 31
0.0
  0
LINE
  5
169
  8
F2_02STRUCTURE
  6
CONTINUOUS
 62
    40
 10
280844.9464693019
 20
-17897.1524797649
 30
0.0
 11
287347.5106934338
 21
-17897.1524797649
 31
0.0
  0
LINE
  5
16A
  8
F2_02STRUCTURE
  6
CONTINUOUS
 62
    40
 10
272250.6482989458
 20
-28082.82882957267
 30
0.0
 11
271932.340959303
 21
-28082.82882957267
 31
0.0
  0
LINE
  5
16B
  8
F2_02STRUCTURE
  6
CONTINUOUS
 62
    40
 10
308446.7400640434
 20
-28082.82882957267
 30
0.0
 11
308446.7400640434
 21
-23763.01073478812
 31
0.0
  0
LINE
  5
16C
  8
F2_02STRUCTURE
  6
CONTINUOUS
 62
    40
 10
308765.0474036862
 20
-28082.82882957267
 30
0.0
 11
308765.0474036862
 21
-23717.53896536934
 31
0.0
  0
LINE
  5
16D
  8
F2_02STRUCTURE
  6
CONTINUOUS
 62
    40
 10
308446.7400640434
 20
-23763.01073478812
 30
0.0
 11
306536.8960261865
 21
-18533.75725162789
 31
0.0
  0
LINE
  5
16E
  8
F2_02STRUCTURE
  6
CONTINUOUS
 62
    40
 10
308765.0474036862
 20
-23717.53896536934
 30
0.0
 11
306764.2584116456
 21
-18397.34194337153
 31
0.0
  0
LINE
  5
16F
  8
F2_02STRUCTURE
  6
CONTINUOUS
 62
    40
 10
306536.8960261865
 20
-18533.75725162789
 30
0.0
 11
303535.7125381256
 21
-15396.20516173174
 31
0.0
  0
LINE
  5
170
  8
F2_02STRUCTURE
  6
CONTINUOUS
 62
    40
 10
306764.2584116456
 20
-18397.34194337153
 30
0.0
 11
303717.6024464929
 21
-15168.84631463782
 31
0.0
  0
LINE
  5
171
  8
F2_02STRUCTURE
  6
CONTINUOUS
 62
    40
 10
303535.7125381256
 20
-15396.20516173174
 30
0.0
 11
302444.3730879216
 21
-14805.07215928754
 31
0.0
  0
LINE
  5
172
  8
F2_02STRUCTURE
  6
CONTINUOUS
 62
    40
 10
303717.6024464929
 20
-15168.84631463782
 30
0.0
 11
302126.0657482789
 21
-14304.88269568091
 31
0.0
  0
LINE
  5
173
  8
F2_02STRUCTURE
  6
CONTINUOUS
 62
    40
 10
298852.047397667
 20
-13031.67315195494
 30
0.0
 11
295214.2492303205
 21
-12122.23776357924
 31
0.0
  0
LINE
  5
174
  8
F2_02STRUCTURE
  6
CONTINUOUS
 62
    40
 10
299124.882260218
 20
-12804.31430486101
 30
0.0
 11
295532.5565699633
 21
-11894.87891648532
 31
0.0
  0
LINE
  5
175
  8
F2_02STRUCTURE
  6
CONTINUOUS
 62
    40
 10
302444.3730879216
 20
-28082.82882957267
 30
0.0
 11
302444.3730879216
 21
-14805.07215928754
 31
0.0
  0
LINE
  5
176
  8
F2_02STRUCTURE
  6
CONTINUOUS
 62
    40
 10
302762.6804275645
 20
-23763.01073478812
 30
0.0
 11
302444.3730879216
 21
-22808.10357699364
 31
0.0
  0
LINE
  5
177
  8
F2_02STRUCTURE
  6
CONTINUOUS
 62
    40
 10
298852.047397667
 20
-19079.4184846533
 30
0.0
 11
297942.5978558304
 21
-18624.70079046545
 31
0.0
  0
POLYLINE
  5
178
  8
F2_02STRUCTURE
  6
CONTINUOUS
 62
    40
 66
     1
 10
0.0
 20
0.0
 30
0.0
  0
VERTEX
  5
297
  8
F2_02STRUCTURE
  6
CONTINUOUS
 62
    40
 10
298852.047397667
 20
-19397.7208705848
 30
0.0
  0
VERTEX
  5
298
  8
F2_02STRUCTURE
  6
CONTINUOUS
 62
    40
 10
297851.6529016467
 20
-18897.53140697816
 30
0.0
  0
VERTEX
  5
299
  8
F2_02STRUCTURE
  6
CONTINUOUS
 62
    40
 10
293850.0749175656
 20
-17897.1524797649
 30
0.0
  0
SEQEND
  5
340
  8
F2_02STRUCTURE
  6
CONTINUOUS
 62
    40
  0
LINE
  5
179
  8
F2_02STRUCTURE
  6
CONTINUOUS
 62
    40
 10
293895.5473946574
 20
-17578.85009383341
 30
0.0
 11
287347.5106934338
 21
-17578.85009383341
 31
0.0
  0
LINE
  5
17A
  8
F2_02STRUCTURE
  6
CONTINUOUS
 62
    40
 10
293850.0749175656
 20
-17897.1524797649
 30
0.0
 11
287347.5106934338
 21
-17897.1524797649
 31
0.0
  0
LINE
  5
17B
  8
F2_02STRUCTURE
  6
CONTINUOUS
 62
    40
 10
302444.3730879216
 20
-28082.82882957267
 30
0.0
 11
302762.6804275645
 21
-28082.82882957267
 31
0.0
  0
LINE
  5
17C
  8
F2_02STRUCTURE
  6
CONTINUOUS
 62
    40
 10
308765.0474036862
 20
-28082.82882957267
 30
0.0
 11
308446.7400640434
 21
-28082.82882957267
 31
0.0
  0
LINE
  5
17D
  8
F2_02STRUCTURE
  6
CONTINUOUS
 62
    40
 10
297942.5978558304
 20
-18624.70079046545
 30
0.0
 11
293895.5473946574
 21
-17578.85009383341
 31
0.0
  0
LINE
  5
17E
  8
F2_02STRUCTURE
  6
CONTINUOUS
 62
    40
 10
302444.3730879216
 20
-28082.82882957267
 30
0.0
 11
298852.047397667
 21
-28082.82882957267
 31
0.0
  0
POLYLINE
  5
17F
  8
F2_02STRUCTURE
  6
CONTINUOUS
 62
    40
 66
     1
 10
0.0
 20
0.0
 30
0.0
  0
VERTEX
  5
29A
  8
F2_02STRUCTURE
  6
CONTINUOUS
 62
    40
 10
299124.882260218
 20
-12804.31430486101
 30
0.0
  0
VERTEX
  5
29B
  8
F2_02STRUCTURE
  6
CONTINUOUS
 62
    40
 10
299124.882260218
 20
-27764.52644364117
 30
0.0
  0
VERTEX
  5
29C
  8
F2_02STRUCTURE
  6
CONTINUOUS
 62
    40
 10
302126.0657482789
 20
-27764.52644364117
 30
0.0
  0
VERTEX
  5
29D
  8
F2_02STRUCTURE
  6
CONTINUOUS
 62
    40
 10
302126.0657482789
 20
-14304.88269568091
 30
0.0
  0
SEQEND
  5
341
  8
F2_02STRUCTURE
  6
CONTINUOUS
 62
    40
  0
LINE
  5
180
  8
F2_02STRUCTURE
  6
CONTINUOUS
 62
    40
 10
298852.047397667
 20
-28082.82882957267
 30
0.0
 11
298852.047397667
 21
-13031.67315195494
 31
0.0
  0
POLYLINE
  5
181
  8
F2_02STRUCTURE
  6
CONTINUOUS
 62
    40
 66
     1
 10
0.0
 20
0.0
 30
0.0
  0
VERTEX
  5
29E
  8
F2_02STRUCTURE
  6
CONTINUOUS
 62
    40
 10
278616.7950918021
 20
2474.200219850638
 30
0.0
  0
VERTEX
  5
29F
  8
F2_02STRUCTURE
  6
CONTINUOUS
 62
    40
 10
274842.5794931802
 20
2474.200219850638
 30
0.0
  0
VERTEX
  5
2A0
  8
F2_02STRUCTURE
  6
CONTINUOUS
 62
    40
 10
274842.5794931802
 20
2155.897833919145
 30
0.0
  0
VERTEX
  5
2A1
  8
F2_02STRUCTURE
  6
CONTINUOUS
 62
    40
 10
278616.7950918021
 20
2155.897833919145
 30
0.0
  0
VERTEX
  5
2A2
  8
F2_02STRUCTURE
  6
CONTINUOUS
 62
    40
 10
278616.7950918021
 20
2474.200219850638
 30
0.0
  0
SEQEND
  5
342
  8
F2_02STRUCTURE
  6
CONTINUOUS
 62
    40
  0
LINE
  5
182
  8
F2_02STRUCTURE
  6
CONTINUOUS
 62
    40
 10
296760.3134514428
 20
2474.200219850638
 30
0.0
 11
274842.5794931802
 21
2474.200219850638
 31
0.0
  0
LINE
  5
183
  8
F2_02STRUCTURE
  6
CONTINUOUS
 62
    40
 10
275206.3593099148
 20
88734.14680728519
 30
0.0
 11
276206.7538059351
 21
88734.14680728519
 31
0.0
  0
POLYLINE
  5
184
  8
F2_02STRUCTURE
  6
CONTINUOUS
 62
    40
 66
     1
 10
0.0
 20
0.0
 30
0.0
  0
VERTEX
  5
2A3
  8
F2_02STRUCTURE
  6
CONTINUOUS
 62
    40
 10
278616.7950918021
 20
655.3294430992537
 30
0.0
  0
VERTEX
  5
2A4
  8
F2_02STRUCTURE
  6
CONTINUOUS
 62
    40
 10
280435.6941754754
 20
655.3294430992537
 30
0.0
  0
VERTEX
  5
2A5
  8
F2_02STRUCTURE
  6
CONTINUOUS
 62
    40
 10
280435.6941754754
 20
337.0270571677611
 30
0.0
  0
VERTEX
  5
2A6
  8
F2_02STRUCTURE
  6
CONTINUOUS
 62
    40
 10
278616.7950918021
 20
337.0270571677611
 30
0.0
  0
VERTEX
  5
2A7
  8
F2_02STRUCTURE
  6
CONTINUOUS
 62
    40
 10
278616.7950918021
 20
655.3294430992537
 30
0.0
  0
SEQEND
  5
343
  8
F2_02STRUCTURE
  6
CONTINUOUS
 62
    40
  0
POLYLINE
  5
185
  8
F2_02STRUCTURE
  6
CONTINUOUS
 62
    40
 66
     1
 10
0.0
 20
0.0
 30
0.0
  0
VERTEX
  5
2A8
  8
F2_02STRUCTURE
  6
CONTINUOUS
 62
    40
 10
280526.639129659
 20
655.3294430992537
 30
0.0
  0
VERTEX
  5
2A9
  8
F2_02STRUCTURE
  6
CONTINUOUS
 62
    40
 10
282345.5382133323
 20
655.3294430992537
 30
0.0
  0
VERTEX
  5
2AA
  8
F2_02STRUCTURE
  6
CONTINUOUS
 62
    40
 10
282345.5382133323
 20
337.0270571677611
 30
0.0
  0
VERTEX
  5
2AB
  8
F2_02STRUCTURE
  6
CONTINUOUS
 62
    40
 10
280526.639129659
 20
337.0270571677611
 30
0.0
  0
VERTEX
  5
2AC
  8
F2_02STRUCTURE
  6
CONTINUOUS
 62
    40
 10
280526.639129659
 20
655.3294430992537
 30
0.0
  0
SEQEND
  5
344
  8
F2_02STRUCTURE
  6
CONTINUOUS
 62
    40
  0
POLYLINE
  5
186
  8
F2_02STRUCTURE
  6
CONTINUOUS
 62
    40
 66
     1
 10
0.0
 20
0.0
 30
0.0
  0
VERTEX
  5
2AD
  8
F2_02STRUCTURE
  6
CONTINUOUS
 62
    40
 10
283527.8226177199
 20
655.3294430992537
 30
0.0
  0
VERTEX
  5
2AE
  8
F2_02STRUCTURE
  6
CONTINUOUS
 62
    40
 10
285346.7217013931
 20
655.3294430992537
 30
0.0
  0
VERTEX
  5
2AF
  8
F2_02STRUCTURE
  6
CONTINUOUS
 62
    40
 10
285346.7217013931
 20
337.0270571677611
 30
0.0
  0
VERTEX
  5
2B0
  8
F2_02STRUCTURE
  6
CONTINUOUS
 62
    40
 10
283527.8226177199
 20
337.0270571677611
 30
0.0
  0
VERTEX
  5
2B1
  8
F2_02STRUCTURE
  6
CONTINUOUS
 62
    40
 10
283527.8226177199
 20
655.3294430992537
 30
0.0
  0
SEQEND
  5
345
  8
F2_02STRUCTURE
  6
CONTINUOUS
 62
    40
  0
POLYLINE
  5
187
  8
F2_02STRUCTURE
  6
CONTINUOUS
 62
    40
 66
     1
 10
0.0
 20
0.0
 30
0.0
  0
VERTEX
  5
2B2
  8
F2_02STRUCTURE
  6
CONTINUOUS
 62
    40
 10
285437.6666555768
 20
655.3294430992537
 30
0.0
  0
VERTEX
  5
2B3
  8
F2_02STRUCTURE
  6
CONTINUOUS
 62
    40
 10
287211.0932621582
 20
655.3294430992537
 30
0.0
  0
VERTEX
  5
2B4
  8
F2_02STRUCTURE
  6
CONTINUOUS
 62
    40
 10
287211.0932621582
 20
337.0270571677611
 30
0.0
  0
VERTEX
  5
2B5
  8
F2_02STRUCTURE
  6
CONTINUOUS
 62
    40
 10
285437.6666555768
 20
337.0270571677611
 30
0.0
  0
VERTEX
  5
2B6
  8
F2_02STRUCTURE
  6
CONTINUOUS
 62
    40
 10
285437.6666555768
 20
655.3294430992537
 30
0.0
  0
SEQEND
  5
346
  8
F2_02STRUCTURE
  6
CONTINUOUS
 62
    40
  0
POLYLINE
  5
188
  8
F2_02STRUCTURE
  6
CONTINUOUS
 62
    40
 66
     1
 10
0.0
 20
0.0
 30
0.0
  0
VERTEX
  5
2B7
  8
F2_02STRUCTURE
  6
CONTINUOUS
 62
    40
 10
287256.56573925
 20
655.3294430992537
 30
0.0
  0
VERTEX
  5
2B8
  8
F2_02STRUCTURE
  6
CONTINUOUS
 62
    40
 10
289075.4648229233
 20
655.3294430992537
 30
0.0
  0
VERTEX
  5
2B9
  8
F2_02STRUCTURE
  6
CONTINUOUS
 62
    40
 10
289075.4648229233
 20
337.0270571677611
 30
0.0
  0
VERTEX
  5
2BA
  8
F2_02STRUCTURE
  6
CONTINUOUS
 62
    40
 10
287256.56573925
 20
337.0270571677611
 30
0.0
  0
VERTEX
  5
2BB
  8
F2_02STRUCTURE
  6
CONTINUOUS
 62
    40
 10
287256.56573925
 20
655.3294430992537
 30
0.0
  0
SEQEND
  5
347
  8
F2_02STRUCTURE
  6
CONTINUOUS
 62
    40
  0
POLYLINE
  5
189
  8
F2_02STRUCTURE
  6
CONTINUOUS
 62
    40
 66
     1
 10
0.0
 20
0.0
 30
0.0
  0
VERTEX
  5
2BC
  8
F2_02STRUCTURE
  6
CONTINUOUS
 62
    40
 10
289166.409777107
 20
655.3294430992537
 30
0.0
  0
VERTEX
  5
2BD
  8
F2_02STRUCTURE
  6
CONTINUOUS
 62
    40
 10
290985.3088607802
 20
655.3294430992537
 30
0.0
  0
VERTEX
  5
2BE
  8
F2_02STRUCTURE
  6
CONTINUOUS
 62
    40
 10
290985.3088607802
 20
337.0270571677611
 30
0.0
  0
VERTEX
  5
2BF
  8
F2_02STRUCTURE
  6
CONTINUOUS
 62
    40
 10
289166.409777107
 20
337.0270571677611
 30
0.0
  0
VERTEX
  5
2C0
  8
F2_02STRUCTURE
  6
CONTINUOUS
 62
    40
 10
289166.409777107
 20
655.3294430992537
 30
0.0
  0
SEQEND
  5
348
  8
F2_02STRUCTURE
  6
CONTINUOUS
 62
    40
  0
POLYLINE
  5
18A
  8
F2_02STRUCTURE
  6
CONTINUOUS
 62
    40
 66
     1
 10
0.0
 20
0.0
 30
0.0
  0
VERTEX
  5
2C1
  8
F2_02STRUCTURE
  6
CONTINUOUS
 62
    40
 10
292213.0657422597
 20
655.3294430992537
 30
0.0
  0
VERTEX
  5
2C2
  8
F2_02STRUCTURE
  6
CONTINUOUS
 62
    40
 10
294031.9648259329
 20
655.3294430992537
 30
0.0
  0
VERTEX
  5
2C3
  8
F2_02STRUCTURE
  6
CONTINUOUS
 62
    40
 10
294031.9648259329
 20
337.0270571677611
 30
0.0
  0
VERTEX
  5
2C4
  8
F2_02STRUCTURE
  6
CONTINUOUS
 62
    40
 10
292213.0657422597
 20
337.0270571677611
 30
0.0
  0
VERTEX
  5
2C5
  8
F2_02STRUCTURE
  6
CONTINUOUS
 62
    40
 10
292213.0657422597
 20
655.3294430992537
 30
0.0
  0
SEQEND
  5
349
  8
F2_02STRUCTURE
  6
CONTINUOUS
 62
    40
  0
POLYLINE
  5
18B
  8
F2_02STRUCTURE
  6
CONTINUOUS
 62
    40
 66
     1
 10
0.0
 20
0.0
 30
0.0
  0
VERTEX
  5
2C6
  8
F2_02STRUCTURE
  6
CONTINUOUS
 62
    40
 10
294122.9097801166
 20
655.3294430992537
 30
0.0
  0
VERTEX
  5
2C7
  8
F2_02STRUCTURE
  6
CONTINUOUS
 62
    40
 10
295941.8088637898
 20
655.3294430992537
 30
0.0
  0
VERTEX
  5
2C8
  8
F2_02STRUCTURE
  6
CONTINUOUS
 62
    40
 10
295941.8088637898
 20
337.0270571677611
 30
0.0
  0
VERTEX
  5
2C9
  8
F2_02STRUCTURE
  6
CONTINUOUS
 62
    40
 10
294122.9097801166
 20
337.0270571677611
 30
0.0
  0
VERTEX
  5
2CA
  8
F2_02STRUCTURE
  6
CONTINUOUS
 62
    40
 10
294122.9097801166
 20
655.3294430992537
 30
0.0
  0
SEQEND
  5
34A
  8
F2_02STRUCTURE
  6
CONTINUOUS
 62
    40
  0
LINE
  5
18C
  8
F2_02STRUCTURE
  6
CONTINUOUS
 62
    40
 10
275206.3593099148
 20
88734.14680728519
 30
0.0
 11
318950.8822722564
 21
88734.14680728519
 31
0.0
  0
LINE
  5
18D
  8
F2_02STRUCTURE
  6
CONTINUOUS
 62
    40
 10
275206.3593099148
 20
88415.84442135369
 30
0.0
 11
290621.5290440456
 21
88415.84442135369
 31
0.0
  0
LINE
  5
18E
  8
F2_02STRUCTURE
  6
CONTINUOUS
 62
    40
 10
290939.8363836884
 20
88415.84442135369
 30
0.0
 11
318678.0474097054
 21
88415.84442135369
 31
0.0
  0
POLYLINE
  5
18F
  8
F2_02STRUCTURE
  6
CONTINUOUS
 62
    40
 66
     1
 10
0.0
 20
0.0
 30
0.0
  0
VERTEX
  5
2CB
  8
F2_02STRUCTURE
  6
CONTINUOUS
 62
    40
 10
283027.6253697098
 20
88415.84442135369
 30
0.0
  0
VERTEX
  5
2CC
  8
F2_02STRUCTURE
  6
CONTINUOUS
 62
    40
 10
285028.4143617504
 20
88415.84442135369
 30
0.0
  0
VERTEX
  5
2CD
  8
F2_02STRUCTURE
  6
CONTINUOUS
 62
    40
 10
285028.4143617504
 20
88734.14680728519
 30
0.0
  0
VERTEX
  5
2CE
  8
F2_02STRUCTURE
  6
CONTINUOUS
 62
    40
 10
283027.6253697098
 20
88734.14680728519
 30
0.0
  0
VERTEX
  5
2CF
  8
F2_02STRUCTURE
  6
CONTINUOUS
 62
    40
 10
283027.6253697098
 20
88415.84442135369
 30
0.0
  0
SEQEND
  5
34B
  8
F2_02STRUCTURE
  6
CONTINUOUS
 62
    40
  0
POLYLINE
  5
190
  8
F2_02STRUCTURE
  6
CONTINUOUS
 62
    40
 66
     1
 10
0.0
 20
0.0
 30
0.0
  0
VERTEX
  5
2D0
  8
F2_02STRUCTURE
  6
CONTINUOUS
 62
    40
 10
285210.3042701177
 20
88415.84442135369
 30
0.0
  0
VERTEX
  5
2D1
  8
F2_02STRUCTURE
  6
CONTINUOUS
 62
    40
 10
287211.0932621582
 20
88415.84442135369
 30
0.0
  0
VERTEX
  5
2D2
  8
F2_02STRUCTURE
  6
CONTINUOUS
 62
    40
 10
287211.0932621582
 20
88734.14680728519
 30
0.0
  0
VERTEX
  5
2D3
  8
F2_02STRUCTURE
  6
CONTINUOUS
 62
    40
 10
285210.3042701177
 20
88734.14680728519
 30
0.0
  0
VERTEX
  5
2D4
  8
F2_02STRUCTURE
  6
CONTINUOUS
 62
    40
 10
285210.3042701177
 20
88415.84442135369
 30
0.0
  0
SEQEND
  5
34C
  8
F2_02STRUCTURE
  6
CONTINUOUS
 62
    40
  0
POLYLINE
  5
191
  8
F2_02STRUCTURE
  6
CONTINUOUS
 62
    40
 66
     1
 10
0.0
 20
0.0
 30
0.0
  0
VERTEX
  5
2D5
  8
F2_02STRUCTURE
  6
CONTINUOUS
 62
    40
 10
287438.4556476174
 20
88415.84442135369
 30
0.0
  0
VERTEX
  5
2D6
  8
F2_02STRUCTURE
  6
CONTINUOUS
 62
    40
 10
289439.244639658
 20
88415.84442135369
 30
0.0
  0
VERTEX
  5
2D7
  8
F2_02STRUCTURE
  6
CONTINUOUS
 62
    40
 10
289439.244639658
 20
88734.14680728519
 30
0.0
  0
VERTEX
  5
2D8
  8
F2_02STRUCTURE
  6
CONTINUOUS
 62
    40
 10
287438.4556476174
 20
88734.14680728519
 30
0.0
  0
VERTEX
  5
2D9
  8
F2_02STRUCTURE
  6
CONTINUOUS
 62
    40
 10
287438.4556476174
 20
88415.84442135369
 30
0.0
  0
SEQEND
  5
34D
  8
F2_02STRUCTURE
  6
CONTINUOUS
 62
    40
  0
LINE
  5
192
  8
F2_02STRUCTURE
  6
CONTINUOUS
 62
    40
 10
283027.6253697098
 20
88415.84442135369
 30
0.0
 11
282800.2629842506
 21
88415.84442135369
 31
0.0
  0
POLYLINE
  5
193
  8
F2_02STRUCTURE
  6
CONTINUOUS
 62
    40
 66
     1
 10
0.0
 20
0.0
 30
0.0
  0
VERTEX
  5
2DA
  8
F2_02STRUCTURE
  6
CONTINUOUS
 62
    40
 10
280617.5840838428
 20
88415.84442135369
 30
0.0
  0
VERTEX
  5
2DB
  8
F2_02STRUCTURE
  6
CONTINUOUS
 62
    40
 10
280799.4739922101
 20
88415.84442135369
 30
0.0
  0
VERTEX
  5
2DC
  8
F2_02STRUCTURE
  6
CONTINUOUS
 62
    40
 10
282800.2629842506
 20
88415.84442135369
 30
0.0
  0
VERTEX
  5
2DD
  8
F2_02STRUCTURE
  6
CONTINUOUS
 62
    40
 10
282800.2629842506
 20
88734.14680728519
 30
0.0
  0
VERTEX
  5
2DE
  8
F2_02STRUCTURE
  6
CONTINUOUS
 62
    40
 10
280799.4739922101
 20
88734.14680728519
 30
0.0
  0
VERTEX
  5
2DF
  8
F2_02STRUCTURE
  6
CONTINUOUS
 62
    40
 10
280799.4739922101
 20
88415.84442135369
 30
0.0
  0
SEQEND
  5
34E
  8
F2_02STRUCTURE
  6
CONTINUOUS
 62
    40
  0
POLYLINE
  5
194
  8
F2_02STRUCTURE
  6
CONTINUOUS
 62
    40
 66
     1
 10
0.0
 20
0.0
 30
0.0
  0
VERTEX
  5
2E0
  8
F2_02STRUCTURE
  6
CONTINUOUS
 62
    40
 10
278434.9051834348
 20
88415.84442135369
 30
0.0
  0
VERTEX
  5
2E1
  8
F2_02STRUCTURE
  6
CONTINUOUS
 62
    40
 10
278616.7950918021
 20
88415.84442135369
 30
0.0
  0
VERTEX
  5
2E2
  8
F2_02STRUCTURE
  6
CONTINUOUS
 62
    40
 10
280617.5840838428
 20
88415.84442135369
 30
0.0
  0
VERTEX
  5
2E3
  8
F2_02STRUCTURE
  6
CONTINUOUS
 62
    40
 10
280617.5840838428
 20
88734.14680728519
 30
0.0
  0
VERTEX
  5
2E4
  8
F2_02STRUCTURE
  6
CONTINUOUS
 62
    40
 10
278616.7950918021
 20
88734.14680728519
 30
0.0
  0
VERTEX
  5
2E5
  8
F2_02STRUCTURE
  6
CONTINUOUS
 62
    40
 10
278616.7950918021
 20
88415.84442135369
 30
0.0
  0
SEQEND
  5
34F
  8
F2_02STRUCTURE
  6
CONTINUOUS
 62
    40
  0
POLYLINE
  5
195
  8
F2_02STRUCTURE
  6
CONTINUOUS
 62
    40
 66
     1
 10
0.0
 20
0.0
 30
0.0
  0
VERTEX
  5
2E6
  8
F2_02STRUCTURE
  6
CONTINUOUS
 62
    40
 10
276434.1161913943
 20
88415.84442135369
 30
0.0
  0
VERTEX
  5
2E7
  8
F2_02STRUCTURE
  6
CONTINUOUS
 62
    40
 10
278434.9051834348
 20
88415.84442135369
 30
0.0
  0
VERTEX
  5
2E8
  8
F2_02STRUCTURE
  6
CONTINUOUS
 62
    40
 10
278434.9051834348
 20
88734.14680728519
 30
0.0
  0
VERTEX
  5
2E9
  8
F2_02STRUCTURE
  6
CONTINUOUS
 62
    40
 10
276434.1161913943
 20
88734.14680728519
 30
0.0
  0
VERTEX
  5
2EA
  8
F2_02STRUCTURE
  6
CONTINUOUS
 62
    40
 10
276434.1161913943
 20
88415.84442135369
 30
0.0
  0
SEQEND
  5
350
  8
F2_02STRUCTURE
  6
CONTINUOUS
 62
    40
  0
LINE
  5
196
  8
F2_02STRUCTURE
  6
CONTINUOUS
 62
    40
 10
290621.5290440456
 20
88415.84442135369
 30
0.0
 11
290621.5290440456
 21
88734.14680728519
 31
0.0
  0
LINE
  5
197
  8
F2_02STRUCTURE
  6
CONTINUOUS
 62
    40
 10
290257.7492273109
 20
83686.78040180008
 30
0.0
 11
275570.1391266495
 21
83686.78040180008
 31
0.0
  0
LINE
  5
198
  8
F2_02STRUCTURE
  6
CONTINUOUS
 62
    40
 10
256790.0060877232
 20
74365.06767094923
 30
0.0
 11
238373.6528655316
 21
74365.06767094923
 31
0.0
  0
LINE
  5
199
  8
F2_02STRUCTURE
  6
CONTINUOUS
 62
    40
 10
275615.6116037413
 20
74365.06767094923
 30
0.0
 11
262792.3730638449
 21
74365.06767094923
 31
0.0
  0
LINE
  5
19A
  8
F2_02STRUCTURE
  6
CONTINUOUS
 62
    40
 10
262655.9556325694
 20
80913.00246725422
 30
0.0
 11
256699.0611335395
 21
80913.00246725422
 31
0.0
  0
POLYLINE
  5
19B
  8
F2_02STRUCTURE
  6
CONTINUOUS
 62
    40
 66
     1
 10
0.0
 20
0.0
 30
0.0
  0
VERTEX
  5
2EB
  8
F2_02STRUCTURE
  6
CONTINUOUS
 62
    40
 10
243648.460208184
 20
88415.84442135369
 30
0.0
  0
VERTEX
  5
2EC
  8
F2_02STRUCTURE
  6
CONTINUOUS
 62
    40
 10
230825.2216682876
 20
88415.84442135369
 30
0.0
  0
VERTEX
  5
2ED
  8
F2_02STRUCTURE
  6
CONTINUOUS
 62
    40
 10
245512.8317689491
 20
88415.84442135369
 30
0.0
  0
VERTEX
  5
2EE
  8
F2_02STRUCTURE
  6
CONTINUOUS
 62
    40
 10
230825.2216682876
 20
88415.84442135369
 30
0.0
  0
VERTEX
  5
2EF
  8
F2_02STRUCTURE
  6
CONTINUOUS
 62
    40
 10
249196.1024133874
 20
88415.84442135369
 30
0.0
  0
SEQEND
  5
351
  8
F2_02STRUCTURE
  6
CONTINUOUS
 62
    40
  0
POLYLINE
  5
19C
  8
F2_02STRUCTURE
  6
CONTINUOUS
 62
    40
 66
     1
 10
0.0
 20
0.0
 30
0.0
  0
VERTEX
  5
2F0
  8
F2_02STRUCTURE
  6
CONTINUOUS
 62
    40
 10
238373.6528655316
 20
74365.06767094923
 30
0.0
  0
VERTEX
  5
2F1
  8
F2_02STRUCTURE
  6
CONTINUOUS
 62
    40
 10
238510.0702968071
 20
80640.1718507415
 30
0.0
  0
VERTEX
  5
2F2
  8
F2_02STRUCTURE
  6
CONTINUOUS
 62
    40
 10
230825.2216682876
 20
80640.1718507415
 30
0.0
  0
SEQEND
  5
352
  8
F2_02STRUCTURE
  6
CONTINUOUS
 62
    40
  0
POLYLINE
  5
19D
  8
F2_02STRUCTURE
  6
CONTINUOUS
 62
    40
 66
     1
 10
0.0
 20
0.0
 30
0.0
  0
VERTEX
  5
2F3
  8
F2_02STRUCTURE
  6
CONTINUOUS
 62
    40
 10
275069.9418786393
 20
80913.00246725422
 30
0.0
  0
VERTEX
  5
2F4
  8
F2_02STRUCTURE
  6
CONTINUOUS
 62
    40
 10
256699.0611335395
 20
80913.00246725422
 30
0.0
  0
VERTEX
  5
2F5
  8
F2_02STRUCTURE
  6
CONTINUOUS
 62
    40
 10
256790.0060877232
 20
74365.06767094923
 30
0.0
  0
SEQEND
  5
353
  8
F2_02STRUCTURE
  6
CONTINUOUS
 62
    40
  0
LINE
  5
19E
  8
F2_02STRUCTURE
  6
CONTINUOUS
 62
    40
 10
262792.3730638449
 20
74365.06767094923
 30
0.0
 11
262655.9556325694
 21
80913.00246725422
 31
0.0
  0
LINE
  5
19F
  8
F2_02STRUCTURE
  6
CONTINUOUS
 62
    40
 10
275615.6116037413
 20
74365.06767094923
 30
0.0
 11
275615.6116037413
 21
83686.78040180008
 31
0.0
  0
LINE
  5
1A0
  8
F2_02STRUCTURE
  6
CONTINUOUS
 62
    40
 10
256790.0060877232
 20
39124.4463713911
 30
0.0
 11
257244.7308586415
 21
68772.0400324387
 31
0.0
  0
LINE
  5
1A1
  8
F2_02STRUCTURE
  6
CONTINUOUS
 62
    40
 10
253515.9877371114
 20
29893.6771793778
 30
0.0
 11
253515.9877371114
 21
34168.02350474356
 31
0.0
  0
LINE
  5
1A2
  8
F2_02STRUCTURE
  6
CONTINUOUS
 62
    40
 10
254516.3822331317
 20
17616.29943630593
 30
0.0
 11
254652.7996644072
 21
22390.83522527833
 31
0.0
  0
LINE
  5
1A3
  8
F2_02STRUCTURE
  6
CONTINUOUS
 62
    40
 10
248059.2904860916
 20
22299.89168644076
 30
0.0
 11
247877.4005777243
 21
29893.6771793778
 31
0.0
  0
POLYLINE
  5
1A4
  8
F2_02STRUCTURE
  6
CONTINUOUS
 62
    40
 66
     1
 10
0.0
 20
0.0
 30
0.0
  0
VERTEX
  5
2F6
  8
F2_02STRUCTURE
  6
CONTINUOUS
 62
    40
 10
290394.1666585864
 20
51947.48534748837
 30
0.0
  0
VERTEX
  5
2F7
  8
F2_02STRUCTURE
  6
CONTINUOUS
 62
    40
 10
290485.1116127701
 20
59723.15791810055
 30
0.0
  0
VERTEX
  5
2F8
  8
F2_02STRUCTURE
  6
CONTINUOUS
 62
    40
 10
285437.6666555768
 20
59723.15791810055
 30
0.0
  0
VERTEX
  5
2F9
  8
F2_02STRUCTURE
  6
CONTINUOUS
 62
    40
 10
285619.5565639441
 20
50128.61457073699
 30
0.0
  0
VERTEX
  5
2FA
  8
F2_02STRUCTURE
  6
CONTINUOUS
 62
    40
 10
288529.7950978213
 20
50128.61457073699
 30
0.0
  0
SEQEND
  5
354
  8
F2_02STRUCTURE
  6
CONTINUOUS
 62
    40
  0
POLYLINE
  5
1A5
  8
F2_02STRUCTURE
  6
CONTINUOUS
 62
    40
 66
     1
 10
0.0
 20
0.0
 30
0.0
  0
VERTEX
  5
2FB
  8
F2_02STRUCTURE
  6
CONTINUOUS
 62
    40
 10
291576.4510629741
 20
53084.27958295798
 30
0.0
  0
VERTEX
  5
2FC
  8
F2_02STRUCTURE
  6
CONTINUOUS
 62
    40
 10
285755.9739952196
 20
47445.78017502869
 30
0.0
  0
VERTEX
  5
2FD
  8
F2_02STRUCTURE
  6
CONTINUOUS
 62
    40
 10
287893.1804185357
 20
45081.24816525189
 30
0.0
  0
VERTEX
  5
2FE
  8
F2_02STRUCTURE
  6
CONTINUOUS
 62
    40
 10
294031.9648259329
 20
50719.74757318119
 30
0.0
  0
VERTEX
  5
2FF
  8
F2_02STRUCTURE
  6
CONTINUOUS
 62
    40
 10
291576.4510629741
 20
53084.27958295798
 30
0.0
  0
SEQEND
  5
355
  8
F2_02STRUCTURE
  6
CONTINUOUS
 62
    40
  0
LINE
  5
1A6
  8
F2_02STRUCTURE
  6
CONTINUOUS
 62
    40
 10
292940.6253757289
 20
44444.64339338891
 30
0.0
 11
289439.244639658
 21
44444.64339338891
 31
0.0
  0
POLYLINE
  5
1A7
  8
F2_02STRUCTURE
  6
CONTINUOUS
 62
    40
 66
     1
 10
0.0
 20
0.0
 30
0.0
  0
VERTEX
  5
300
  8
F2_02STRUCTURE
  6
CONTINUOUS
 62
    40
 10
292940.6253757289
 20
44444.64339338891
 30
0.0
  0
VERTEX
  5
301
  8
F2_02STRUCTURE
  6
CONTINUOUS
 62
    40
 10
292895.1528986371
 20
40943.31714814248
 30
0.0
  0
VERTEX
  5
302
  8
F2_02STRUCTURE
  6
CONTINUOUS
 62
    40
 10
289439.244639658
 20
40943.31714814248
 30
0.0
  0
VERTEX
  5
303
  8
F2_02STRUCTURE
  6
CONTINUOUS
 62
    40
 10
289439.244639658
 20
44444.64339338891
 30
0.0
  0
SEQEND
  5
356
  8
F2_02STRUCTURE
  6
CONTINUOUS
 62
    40
  0
POLYLINE
  5
1A8
  8
F2_02STRUCTURE
  6
CONTINUOUS
 62
    40
 66
     1
 10
0.0
 20
0.0
 30
0.0
  0
VERTEX
  5
304
  8
F2_02STRUCTURE
  6
CONTINUOUS
 62
    40
 10
305627.4464843498
 20
50492.38872608726
 30
0.0
  0
VERTEX
  5
305
  8
F2_02STRUCTURE
  6
CONTINUOUS
 62
    40
 10
306809.7308887375
 20
54357.48912668395
 30
0.0
  0
VERTEX
  5
306
  8
F2_02STRUCTURE
  6
CONTINUOUS
 62
    40
 10
306900.6758429211
 20
66043.73386731162
 30
0.0
  0
VERTEX
  5
307
  8
F2_02STRUCTURE
  6
CONTINUOUS
 62
    40
 10
302990.0428130237
 20
74637.89828746193
 30
0.0
  0
VERTEX
  5
308
  8
F2_02STRUCTURE
  6
CONTINUOUS
 62
    40
 10
299215.8272144017
 20
77366.20445258901
 30
0.0
  0
SEQEND
  5
357
  8
F2_02STRUCTURE
  6
CONTINUOUS
 62
    40
  0
POLYLINE
  5
1A9
  8
F2_02STRUCTURE
  6
CONTINUOUS
 62
    40
 66
     1
 10
0.0
 20
0.0
 30
0.0
  0
VERTEX
  5
309
  8
F2_02STRUCTURE
  6
CONTINUOUS
 62
    40
 10
306946.148320013
 20
82004.32493330505
 30
0.0
  0
VERTEX
  5
30A
  8
F2_02STRUCTURE
  6
CONTINUOUS
 62
    40
 10
299943.3868478709
 20
82004.32493330505
 30
0.0
  0
VERTEX
  5
30B
  8
F2_02STRUCTURE
  6
CONTINUOUS
 62
    40
 10
297533.3455620039
 20
79776.20823178459
 30
0.0
  0
VERTEX
  5
30C
  8
F2_02STRUCTURE
  6
CONTINUOUS
 62
    40
 10
290257.7492273109
 20
83686.78040180008
 30
0.0
  0
SEQEND
  5
358
  8
F2_02STRUCTURE
  6
CONTINUOUS
 62
    40
  0
POLYLINE
  5
1AA
  8
F2_02STRUCTURE
  6
CONTINUOUS
 62
    40
 66
     1
 10
0.0
 20
0.0
 30
0.0
  0
VERTEX
  5
30D
  8
F2_02STRUCTURE
  6
CONTINUOUS
 62
    40
 10
310129.2217164412
 20
79912.62354004095
 30
0.0
  0
VERTEX
  5
30E
  8
F2_02STRUCTURE
  6
CONTINUOUS
 62
    40
 10
301262.0886835341
 20
79912.62354004095
 30
0.0
  0
VERTEX
  5
30F
  8
F2_02STRUCTURE
  6
CONTINUOUS
 62
    40
 10
299215.8272144017
 20
77366.20445258901
 30
0.0
  0
SEQEND
  5
359
  8
F2_02STRUCTURE
  6
CONTINUOUS
 62
    40
  0
POLYLINE
  5
1AB
  8
F2_02STRUCTURE
  6
CONTINUOUS
 62
    40
 66
     1
 10
0.0
 20
0.0
 30
0.0
  0
VERTEX
  5
310
  8
F2_02STRUCTURE
  6
CONTINUOUS
 62
    40
 10
305627.4464843498
 20
50492.38872608726
 30
0.0
  0
VERTEX
  5
311
  8
F2_02STRUCTURE
  6
CONTINUOUS
 62
    40
 10
304399.6896028704
 20
47945.96963863532
 30
0.0
  0
VERTEX
  5
312
  8
F2_02STRUCTURE
  6
CONTINUOUS
 62
    40
 10
302853.6253817481
 20
44899.36108757675
 30
0.0
  0
SEQEND
  5
35A
  8
F2_02STRUCTURE
  6
CONTINUOUS
 62
    40
  0
ENDBLK
  8
0
  0
ENDSEC
  0
SECTION
  2
ENTITIES
  0
INSERT
  5
71
  8
F2_02STRUCTURE
  6
CONTINUOUS
 62
     7
  2
VIEWPORT1
 10
0.0
 20
0.0
 30
0.0
  0
ENDSEC
  0
EOF
